<svg width="188" height="291" viewBox="0 0 188 291" fill="none" xmlns="http://www.w3.org/2000/svg">
<path d="M47.089 156.178C46.564 156.703 45.6607 162.416 46.317 163.242C46.9732 164.068 52.0298 166.855 52.7864 166.476C53.5429 166.098 53.983 160.833 53.3808 159.783C52.7786 158.733 47.6371 155.645 47.089 156.178Z" fill="#3D9CFB"/>
<path d="M112.833 240.011H105.839L105.993 243.176H113.057L112.833 240.011Z" fill="#3D9CFB"/>
<path d="M38.543 232.422C39.5235 231.897 39.3614 228.678 38.6202 228.361C37.9795 228.2 37.32 228.124 36.6593 228.137C36.2116 227.983 36.3583 227.08 35.6094 227.01C33.0155 226.678 32.6758 227.234 32.6758 229.326C32.6758 231.642 32.7607 231.943 33.1313 232.252C33.7412 232.785 37.717 232.8 38.543 232.422Z" fill="#3D9CFB"/>
<path d="M121.557 230.537L115.311 228.136L118.098 226.253L117.874 221.142L111.027 221.366V225.728L104.333 226.631L104.635 229.634L113.281 230.391L113.435 234.598L121.781 234.297L121.557 230.537Z" fill="#3D9CFB"/>
<path d="M55.2338 196.631C55.1566 198.731 55.1566 240.913 55.2338 243.847C55.311 246.78 55.1566 251.52 56.1371 251.968C56.8164 252.346 56.8164 249.714 56.8164 247.46C56.8164 245.205 56.662 197.279 56.5925 195.504C56.5231 193.728 55.311 194.6 55.2338 196.631Z" fill="#3D9CFB"/>
<path d="M113.435 248.889L106.595 249.259V252.795L113.736 252.425L113.435 248.889Z" fill="#3D9CFB"/>
<path d="M67.2689 217.606C66.0645 217.46 61.4788 217.159 61.2472 218.378C61.0156 219.598 66.0645 219.212 67.2689 219.15C68.4732 219.089 68.4655 217.869 67.2689 217.606Z" fill="#3D9CFB"/>
<path d="M63.0544 243.399C64.2309 243.504 65.4136 243.504 66.5901 243.399C67.1923 243.314 67.7173 243.098 67.3621 242.419C66.9144 241.593 63.9113 241.647 63.0775 242.048C61.9349 242.519 62.4522 243.245 63.0544 243.399Z" fill="#3D9CFB"/>
<path d="M67.8713 203.85C65.8707 203.621 63.8504 203.621 61.8497 203.85C61.6758 203.857 61.5105 203.927 61.3839 204.047C61.2574 204.166 61.178 204.327 61.1602 204.5C61.1424 204.674 61.1874 204.847 61.2871 204.99C61.3867 205.133 61.5343 205.235 61.703 205.278C62.5368 205.71 67.0376 205.502 67.9408 205.347C68.8441 205.193 69.1452 204.073 67.8713 203.85Z" fill="#3D9CFB"/>
<path d="M40.5735 224.145C41.1757 222.871 41.0135 220.339 39.6702 219.559C39.292 219.343 37.1921 219.335 36.891 219.713C36.5899 220.092 36.5899 223.921 36.9605 224.299C37.5627 224.816 40.3496 224.6 40.5735 224.145Z" fill="#3D9CFB"/>
<path d="M62.1507 232.421C63.4361 232.496 64.7253 232.496 66.0107 232.421C66.914 232.344 67.4389 231.294 66.0107 230.916C64.5711 230.597 63.0764 230.624 61.6489 230.993C60.5758 231.217 60.7997 232.421 62.1507 232.421Z" fill="#3D9CFB"/>
<path d="M45.8384 182.418C46.51 181.816 43.5224 178.435 43.4297 177.531C43.3371 176.628 45.2362 174.142 44.6341 173.471C44.0319 172.799 40.5733 174.243 39.8244 174.243C38.844 174.243 37.7169 170.707 36.2115 171.309C35.0843 171.765 35.6093 175.895 35.0071 176.713C34.6288 177.308 31.2474 178.064 31.4713 179.268C31.6952 180.473 34.7832 180.473 35.231 180.998C36.003 181.77 34.9299 185.63 36.003 185.807C37.879 186.031 39.1605 181.824 40.0638 181.6C40.967 181.376 44.8579 183.244 45.8384 182.418Z" fill="#3D9CFB"/>
<path d="M65.3853 197.982C66.6669 197.982 66.6669 196.631 65.3853 196.477C64.1038 196.323 60.1202 196.029 59.8964 197.249C59.6725 198.469 64.1115 197.982 65.3853 197.982Z" fill="#3D9CFB"/>
<path d="M93.2088 253.551L90.499 221.59L82.833 221.512L85.9905 254.076L93.2088 253.551Z" fill="#3D9CFB"/>
<path d="M95.3164 184.372C95.988 184.449 96.4435 183.6 95.3164 182.565C96.7678 181.353 95.3164 180.434 94.1893 181.438C93.5099 180.913 92.6452 180.535 92.3056 181.137C91.9659 181.739 92.8305 182.341 93.0776 182.496C91.9504 183.468 92.4059 184.148 93.0776 184.225C93.3786 184.225 93.7569 183.847 94.1352 183.453C94.4477 183.851 94.8533 184.167 95.3164 184.372Z" fill="#3D9CFB"/>
<path d="M126.969 247.082L126.668 243.546L119.75 243.924L119.905 247.383L126.969 247.082Z" fill="#3D9CFB"/>
<path d="M105.615 184.372C106.14 184.819 106.665 184.07 106.966 183.769C107.344 184.07 108.17 184.75 108.626 184.225C109.081 183.7 108.247 182.866 108.093 182.642C108.471 182.341 108.695 181.592 108.247 181.291C108.079 181.194 107.884 181.153 107.691 181.177C107.498 181.2 107.318 181.286 107.178 181.421C107.086 181.511 107.013 181.619 106.966 181.739C106.294 181.291 105.615 181.06 105.237 181.592C104.858 182.125 105.391 182.642 105.839 182.866C105.468 183.391 105.09 183.901 105.615 184.372Z" fill="#3D9CFB"/>
<path d="M92.7529 203.618C90.1494 203.493 87.5408 203.519 84.9402 203.695C83.7359 203.849 83.6587 204.977 84.9402 205.239C87.5697 205.366 90.2038 205.339 92.8302 205.162C93.8106 205.054 94.6366 203.772 92.7529 203.618Z" fill="#3D9CFB"/>
<path d="M99.0759 159.56C99.6781 155.499 98.3965 154.372 94.5597 154.071C91.1011 153.847 85.836 153.77 83.2034 153.916C81.1808 153.993 82.3774 155.383 84.5622 155.345C86.2915 155.345 91.0239 155.345 94.4825 155.576C98.0954 155.8 97.8716 157.83 97.6477 159.436C95.9338 171.132 93.6255 176.042 94.4825 176.582C96.1268 177.586 98.8134 161.513 99.0759 159.56Z" fill="#3D9CFB"/>
<path d="M79.8995 184.07C80.3473 184.673 81.1811 183.993 81.4436 183.692C81.8218 184.07 82.1229 184.464 82.5784 184.526C83.1728 184.526 83.775 183.847 82.6479 182.642C82.7251 182.565 83.6283 181.963 83.1729 181.438C82.7174 180.913 82.1229 181.137 81.6288 181.592C81.405 181.361 80.8028 180.689 80.2006 181.214C79.5985 181.739 80.3473 182.418 80.5017 182.565C80.2855 182.797 79.4441 183.468 79.8995 184.07Z" fill="#3D9CFB"/>
<path d="M87.4963 174.745C87.8669 175.27 88.994 175.2 89.5962 175.2C90.1984 175.2 91.3255 175.2 91.4027 174.374C91.4799 173.548 90.1289 173.316 88.168 173.695C87.7202 173.772 87.2338 174.22 87.4963 174.745Z" fill="#3D9CFB"/>
<path d="M86.4612 158.656C85.033 158.432 81.8755 158.355 81.4972 159.104C81.1189 159.853 82.2692 160.162 82.9331 160.162C84.3606 160.235 85.7903 160.235 87.2178 160.162C88.0979 160.007 88.4684 158.957 86.4612 158.656Z" fill="#3D9CFB"/>
<path d="M131.631 201.063C131.708 200.777 131.714 200.478 131.648 200.189C131.582 199.901 131.446 199.634 131.253 199.411C129.979 198.361 114.778 198.546 112.987 199.109C112.3 199.326 111.582 199.797 112.007 201.966C112.207 203.024 113.28 203.093 113.96 203.093C123.363 203.17 128.921 203.024 129.825 202.946C131.237 202.869 131.484 202.491 131.631 201.063ZM121.402 201.665C120.205 201.742 115.01 201.966 114.037 201.588C113.064 201.209 113.211 200.159 114.114 200.09C116.643 199.963 119.177 199.986 121.703 200.159C122.683 200.391 122.606 201.657 121.402 201.657V201.665ZM128.852 201.588C128.026 201.742 125.918 201.966 125.092 201.588C124.266 201.209 124.034 200.159 125.092 200.09C126.38 199.992 127.675 200.042 128.952 200.237C129.825 200.391 129.755 201.441 128.852 201.588Z" fill="#3D9CFB"/>
<path d="M86.9628 192.872C88.5894 193.057 90.2315 193.057 91.8573 192.872C92.0621 192.872 92.2584 192.79 92.4032 192.646C92.548 192.501 92.6293 192.304 92.6293 192.1C92.6293 191.895 92.548 191.699 92.4032 191.554C92.2584 191.409 92.0621 191.328 91.8573 191.328C90.2285 191.196 88.5916 191.196 86.9628 191.328C85.6118 191.559 85.9901 192.64 86.9628 192.872Z" fill="#3D9CFB"/>
<path d="M36.5124 204.374C36.0646 204.22 36.2113 203.317 35.4624 203.247C34.6774 203.151 33.8809 203.255 33.1464 203.548C32.8453 203.78 32.7681 204.22 32.8453 205.725C32.9148 207.678 33.0692 208.041 33.3703 208.358C33.9493 208.937 38.2648 208.759 38.7049 208.582C39.0059 208.512 39.0832 208.134 39.0832 206.551C39.1449 203.548 37.8248 204.822 36.5124 204.374Z" fill="#3D9CFB"/>
<path d="M20.9483 170.383C24.9319 170.537 25.3796 168.954 23.6503 168.885C20.7939 168.731 14.0311 168.391 12.1474 168.283C10.2637 168.175 7.41502 168.206 7.7161 165.195C8.11978 160.941 8.82145 156.72 9.81596 152.565C10.0939 151.507 10.9431 150.31 14.1006 150.249C29.3477 150.04 30.5598 151.793 30.7991 150.403C31.1697 148.82 17.0342 148.743 14.1006 148.743C10.0398 148.82 8.84323 150.102 8.38775 152.279C4.47367 171.502 3.85606 169.487 20.9483 170.383Z" fill="#3D9CFB"/>
<path d="M121.634 181.515C121.101 181.06 120.275 181.662 119.974 181.894C119.372 181.438 118.701 181.122 118.245 181.662C117.79 182.202 118.623 182.866 118.77 182.943C118.245 183.468 117.874 183.847 118.322 184.372C118.77 184.897 119.604 184.294 119.866 183.993C120.167 184.372 120.916 185.121 121.518 184.596C122.121 184.071 121.217 183.245 120.993 182.943C121.202 182.797 122.159 182.04 121.634 181.515Z" fill="#3D9CFB"/>
<path d="M15.6064 152.789C14.8289 152.539 13.9962 152.515 13.2055 152.72C13.055 152.763 12.9237 152.856 12.8329 152.984C12.742 153.112 12.697 153.266 12.705 153.423C12.7131 153.579 12.7737 153.728 12.8772 153.846C12.9807 153.964 13.1208 154.043 13.275 154.071C16.6487 155.082 17.0192 153.167 15.6064 152.789Z" fill="#3D9CFB"/>
<path d="M15.2359 158.131C16.587 158.131 16.2087 156.85 15.2359 156.626C11.1366 155.684 8.95952 158.479 15.2359 158.131Z" fill="#3D9CFB"/>
<path d="M36.358 211.592C35.9874 212.04 36.0646 215.954 36.5124 216.325C37.1145 216.857 40.2103 216.556 40.4187 216.101C41.0518 214.765 40.797 212.194 39.3688 211.368C38.9905 211.137 36.7363 211.137 36.358 211.592Z" fill="#3D9CFB"/>
<path d="M32.1507 195.805C31.6952 195.666 31.9268 194.747 31.1703 194.67C30.5681 194.601 29.0009 194.531 28.6149 194.825C28.2289 195.118 28.3138 195.651 28.3138 197.079C28.4296 200.731 28.7307 200.314 31.4713 200.314C34.652 200.314 34.8605 200.584 34.8605 198.129C34.9299 194.971 33.494 196.253 32.1507 195.805Z" fill="#3D9CFB"/>
<path d="M28.3907 153.244C27.73 153.006 27.0032 153.031 26.3603 153.314C25.3798 153.846 25.9125 154.672 26.5842 154.672C27.2558 154.672 27.6418 154.742 28.3907 154.742C29.1395 154.742 29.0623 153.483 28.3907 153.244Z" fill="#3D9CFB"/>
<path d="M24.1058 153.244C23.3338 152.627 18.9179 152.866 18.6169 152.943C17.5129 153.221 16.8567 155.089 23.5809 154.673C23.7468 154.673 23.9087 154.622 24.0447 154.527C24.1808 154.432 24.2844 154.297 24.3417 154.142C24.3989 153.986 24.407 153.816 24.3648 153.656C24.3226 153.496 24.2322 153.352 24.1058 153.244Z" fill="#3D9CFB"/>
<path d="M24.4847 164.523C23.3498 164.461 20.3467 163.99 20.6246 165.194C20.9026 166.399 24.3071 166.097 25.357 165.966C26.2834 165.796 26.7389 164.6 24.4847 164.523Z" fill="#3D9CFB"/>
<path d="M20.9487 158.424C21.9986 158.424 22.3769 158.123 22.153 157.521C21.8519 156.749 19.4433 156.695 18.6944 156.695C17.9456 156.695 17.3974 157.22 17.5596 157.745C17.7526 158.424 19.9682 158.424 20.9487 158.424Z" fill="#3D9CFB"/>
<path d="M26.8163 157.004C25.9825 156.927 23.6511 156.626 23.4272 157.676C23.2033 158.726 25.612 158.579 26.7391 158.502C26.8512 158.536 26.9694 158.543 27.0849 158.525C27.2004 158.506 27.3101 158.461 27.4058 158.394C27.5014 158.326 27.5805 158.238 27.637 158.136C27.6936 158.033 27.7261 157.919 27.7321 157.802C27.7381 157.686 27.7175 157.569 27.6718 157.461C27.6261 157.353 27.5565 157.258 27.4683 157.181C27.3801 157.104 27.2756 157.048 27.1626 157.017C27.0497 156.987 26.9312 156.982 26.8163 157.004Z" fill="#3D9CFB"/>
<path d="M33.9648 236.706C33.4193 236.614 32.8646 236.589 32.3128 236.629C31.8573 236.483 32.0117 235.579 31.2551 235.502C30.4478 235.419 29.6322 235.495 28.8542 235.726C28.198 236.058 28.0281 240.003 28.9236 240.767C29.3791 241.146 33.3627 241.146 34.1887 240.914C35.0148 240.682 34.9299 236.93 33.9648 236.706Z" fill="#3D9CFB"/>
<path d="M64.3353 167.079C57.1171 168.623 59.4485 179.431 66.5896 177.98C73.9546 176.474 71.7929 165.496 64.3353 167.079Z" fill="#3D9CFB"/>
<path d="M32.1503 245.051C31.6948 244.913 32.0731 244.079 31.1699 243.924C30.4982 243.778 28.9156 243.778 28.545 244.38C28.1745 244.982 28.244 248.587 28.6145 249.012C28.9851 249.436 30.3438 249.545 31.4015 249.545C34.4895 249.545 34.6285 249.313 34.7057 247.36C34.7829 244.75 33.4936 245.461 32.1503 245.051Z" fill="#3D9CFB"/>
<path d="M21.9988 162.338C22.6781 162.338 23.427 162.037 22.902 161.288C22.2304 160.331 16.2241 160.408 17.3358 161.967C17.7527 162.415 21.3194 162.338 21.9988 162.338Z" fill="#3D9CFB"/>
<path d="M89.6728 170.314C91.8576 170.383 92.3825 170.159 92.2281 169.542C91.9271 168.638 89.75 168.638 88.7696 168.77C88.2446 168.885 87.6424 170.236 89.6728 170.314Z" fill="#3D9CFB"/>
<path d="M81.5513 165.195C82.2307 165.272 86.0676 165.427 86.8164 165.349C87.5653 165.272 87.3414 164.068 86.4381 163.921C85.836 163.767 81.2503 163.319 80.8797 164.523C80.6481 164.894 80.8797 165.125 81.5513 165.195Z" fill="#3D9CFB"/>
<path d="M92.3052 160.385C97.1302 160.385 94.1271 158.293 91.178 158.88C90.406 159.034 90.2748 159.482 90.4987 159.86C90.877 160.462 91.703 160.385 92.3052 160.385Z" fill="#3D9CFB"/>
<path d="M86.0675 168.584C84.5975 168.376 83.1094 168.324 81.6285 168.43C80.5013 168.584 80.648 169.712 81.6285 169.935C83.1019 170.109 84.5889 170.135 86.0675 170.013C87.2332 169.935 86.8935 168.808 86.0675 168.584Z" fill="#3D9CFB"/>
<path d="M80.0456 174.073C80.2772 175.2 84.1064 175.046 85.0868 174.976C86.0673 174.907 86.2139 173.842 85.0868 173.471C83.9597 173.1 79.8217 172.946 80.0456 174.073Z" fill="#3D9CFB"/>
<path d="M12.8274 160.686C11.7002 160.833 11.7774 162.037 12.6035 162.192C13.4295 162.346 14.8577 162.338 15.3055 162.338C16.6256 162.122 16.6797 160.208 12.8274 160.686Z" fill="#3D9CFB"/>
<path d="M18.2389 165.952C19.2193 165.952 18.9182 164.67 18.2389 164.446C17.5595 164.222 14.8575 163.991 14.7803 165.048C14.7031 166.106 17.2661 165.952 18.2389 165.952Z" fill="#3D9CFB"/>
<path d="M89.0711 164.894C89.1483 165.427 90.8004 165.427 91.5569 165.427C92.3135 165.427 93.4329 165.573 93.2862 164.655C92.9851 163.682 90.1287 163.829 89.7504 163.883C89.6333 163.891 89.5197 163.926 89.4182 163.985C89.3166 164.044 89.2299 164.125 89.1644 164.223C89.0989 164.32 89.0565 164.431 89.0403 164.548C89.0242 164.664 89.0347 164.782 89.0711 164.894Z" fill="#3D9CFB"/>
<path d="M10.4956 165.496C11.229 165.696 11.991 165.774 12.7498 165.728C13.9851 165.627 13.8538 163.365 10.4338 164.222C9.89342 164.292 9.74674 165.272 10.4956 165.496Z" fill="#3D9CFB"/>
<path d="M79.2971 198.507C81.8525 198.36 81.1036 196.963 79.3743 196.855C76.9657 196.778 71.7778 196.701 70.2724 197.002C68.767 197.303 68.9214 198.43 70.2724 198.546C72.4572 198.569 77.1201 198.661 79.2971 198.507Z" fill="#001434"/>
<path d="M80.8023 192.192C77.7189 191.951 74.6215 191.951 71.5382 192.192C70.11 192.415 70.6349 193.543 71.5382 193.736C72.4414 193.929 79.6597 193.882 80.8023 193.736C81.9448 193.589 82.2382 192.462 80.8023 192.192Z" fill="#001434"/>
<path d="M120.877 204.598C118.802 204.428 116.718 204.403 114.639 204.521C114.114 204.521 113.358 205.054 113.96 205.725C114.562 206.397 120.136 206.25 121.556 206.104C122.745 205.949 122.236 204.822 120.877 204.598Z" fill="#001434"/>
<path d="M62.2278 223.62C62.11 223.646 62.0014 223.703 61.9142 223.786C61.827 223.87 61.7645 223.975 61.7337 224.092C61.7028 224.209 61.7044 224.331 61.7385 224.447C61.7725 224.562 61.8376 224.666 61.9267 224.747C62.5289 225.519 66.7363 225.28 67.794 225.126C67.912 225.113 68.0249 225.071 68.1219 225.002C68.219 224.934 68.2969 224.842 68.3483 224.735C68.3998 224.628 68.423 224.51 68.4158 224.391C68.4087 224.273 68.3713 224.158 68.3074 224.058C68.2213 223.924 68.0918 223.824 67.9407 223.775C66.5125 223.273 63.0539 223.474 62.2278 223.62Z" fill="#001434"/>
<path d="M60.9852 237.609C62.0274 238.157 66.3892 237.91 67.5318 237.686C68.6744 237.462 68.7361 236.481 67.5318 236.142C65.3556 235.913 63.1614 235.913 60.9852 236.142C60.2132 236.258 60.2672 237.246 60.9852 237.609Z" fill="#001434"/>
<path d="M118.399 282.718C111.559 283.49 114.732 283.706 111.258 281.946C112.532 281.791 113.96 281.49 114.562 281.413C115.164 281.336 115.851 281.019 115.164 280.51C114.477 280 112.686 280.139 109.227 280.741C108.548 280.363 107.421 279.684 106.595 279.236C107.722 279.082 108.625 278.935 109.976 278.78C111.327 278.626 110.2 277.283 107.66 277.653C106.379 277.808 105.931 277.885 104.572 278.032C101.615 276.156 99.7317 277.043 102.31 278.333C100.21 278.634 97.8789 279.012 95.8485 279.313C94.4203 278.479 92.7065 277.962 92.39 278.634C92.1738 279.089 92.5366 279.406 93.2932 279.761C92.5436 279.873 91.8102 280.075 91.1084 280.363C90.6607 280.664 91.1084 281.791 95.6247 280.888C96.3967 281.189 99.6854 282.772 101.862 283.675C103.484 284.323 104.426 282.749 98.2495 280.44C100.357 280.139 102.465 279.838 104.426 279.537C105.198 279.985 105.97 280.51 106.834 281.081C104.047 281.776 105.144 282.903 106.533 282.733C109.39 282.378 108.247 281.892 111.273 283.714C106.911 284.54 107.135 285.258 107.807 285.59C108.479 285.922 110.069 285.512 113.528 284.987C114.13 285.288 114.5 285.512 115.257 285.891C116.013 286.269 117.133 285.512 115.782 284.54C117.05 284.361 118.306 284.103 119.541 283.768C120.738 283.351 119.974 282.548 118.399 282.718Z" fill="#001434"/>
<path d="M124.714 205.88H130.048C130.651 205.88 131.183 205.277 130.349 204.675C129.516 204.073 125.463 204.15 124.637 204.374C123.811 204.598 123.517 205.88 124.714 205.88Z" fill="#001434"/>
<path d="M120.731 178.959C114.338 178.543 108.703 178.658 76.8189 178.658C75.9157 178.658 75.2749 178.805 75.5374 179.33C76.2167 180.31 78.471 179.708 82.4854 180.009C84.5158 180.164 84.8941 180.835 84.593 184.448C84.4386 185.799 85.7973 185.421 86.137 183.923C86.3377 182.997 86.4613 180.882 85.8359 179.932C98.7285 179.932 98.3347 178.944 98.0182 184.371C97.941 185.653 99.1453 185.352 99.3692 184.448C99.6703 183.167 99.8942 180.835 99.1454 180.009C102.751 180.009 107.56 180.087 109.066 180.087C112.378 180.164 110.795 184.896 111.853 185.197C112.91 185.498 113.057 181.515 112.3 180.164C115.682 180.233 118.615 180.31 120.723 180.465C128.018 180.913 124.784 188.054 126.814 188.054C127.416 188.054 127.64 187.382 127.64 186.927C127.571 181.816 125.316 179.183 120.731 178.959Z" fill="#001434"/>
<path d="M133.06 278.51C132.002 278.013 130.972 277.461 129.971 276.858C131.4 276.557 131.701 276.333 131.624 276.032C131.546 275.507 130.496 275.26 127.864 275.584C125.957 274.31 123.101 274.573 125.548 276.032C125.1 276.109 120.213 276.804 118.932 276.935C115.844 275.051 114.145 276.101 115.396 276.634C115.788 276.802 116.166 277.003 116.523 277.236C114.346 277.761 114.794 278.888 115.998 278.78C119.086 278.502 117.936 278.008 121.263 280.062C122.537 280.741 122.614 279.236 121.109 278.186C123.216 277.885 125.471 277.584 127.501 277.283C128.559 277.885 129.531 278.41 130.512 279.012C127.13 279.537 126.899 279.838 126.829 280.363C126.606 281.475 130.689 280.502 132.689 280.208C133.523 280.664 134.565 281.282 135.252 281.644C135.939 282.007 138.255 281.644 135.02 279.761C135.846 279.683 137.205 279.46 136.75 278.989C136.294 278.518 135.468 278.286 133.06 278.51Z" fill="#001434"/>
<path d="M114.338 194.523C122.189 194.523 123.479 194.755 122.985 193.751C122.606 192.979 120.73 192.979 117.719 192.979C115.01 192.979 113.736 193.134 113.581 193.751C113.427 194.369 113.883 194.523 114.338 194.523Z" fill="#001434"/>
<path d="M144.362 278.965C140.901 276.551 137.227 274.46 133.384 272.72C130.45 271.369 129.4 271.222 125.864 271.369C123.548 271.446 87.4414 275.283 84.9479 276.333C81.937 277.614 81.4121 281.737 84.4152 283.281C91.0313 286.515 99.6855 290.8 106.749 290.877C114.57 291.024 134.495 287.264 141.937 285.535C147.951 284.076 147.65 281.443 144.362 278.965ZM141.505 283.775C136.919 284.755 116.616 288.214 111.397 288.739C106.51 289.194 105.159 289.341 100.643 287.967C95.3314 286.289 90.1673 284.177 85.2026 281.652C83.5505 280.818 84.006 278.718 85.6581 278.039C87.6113 277.213 122.429 273.407 126.791 273.075C130.018 272.851 131.6 274.132 134.758 275.483C142.046 279.343 147.65 282.424 141.482 283.775H141.505Z" fill="#001434"/>
<path d="M114.64 209.377C116.184 209.446 120.206 209.678 123.811 209.601C128.621 209.446 133.585 210.581 133.809 205.092C133.886 202.776 133.809 197.943 133.585 195.056C133.284 190.995 132.041 190.247 128.474 189.945C125.618 189.722 116.215 189.567 114.115 189.868C112.015 190.169 110.201 190.771 109.9 193.852C109.608 197.381 109.582 200.926 109.822 204.459C110.123 208.358 111.629 209.107 114.64 209.377ZM111.482 193.937C111.706 191.984 112.609 191.528 114.416 191.304C116.222 191.08 125.618 191.157 128.397 191.381C131.408 191.605 131.855 191.829 132.157 195.064C132.38 197.843 132.458 202.583 132.38 204.915C132.311 206.945 131.855 207.47 129.756 207.771C127.193 208.149 117.643 207.925 114.864 207.771C112.455 207.624 111.629 207.323 111.405 204.312C111.165 200.857 111.191 197.388 111.482 193.937Z" fill="#001434"/>
<path d="M68.7049 247.46C67.4234 247.236 62.7605 247.236 62.4594 247.907C61.5252 249.544 67.1841 249.15 69.0755 249.035C70.3493 248.965 69.971 247.684 68.7049 247.46Z" fill="#001434"/>
<path d="M49.5205 213.847C47.9765 213.569 44.0392 213.561 45.1586 214.897C45.6836 215.669 48.7716 215.429 49.5205 215.352C50.2693 215.275 50.802 214.071 49.5205 213.847Z" fill="#001434"/>
<path d="M48.7719 231.294C49.9685 231.14 49.899 230.013 48.7719 229.75C47.3242 229.56 45.8578 229.56 44.4101 229.75C43.1517 230.105 42.7425 232.043 48.7719 231.294Z" fill="#001434"/>
<path d="M48.54 221.667C46.996 221.667 45.5369 221.667 45.2358 222.269C44.9347 222.717 45.2358 223.172 45.838 223.319C47.1388 223.396 48.4435 223.396 49.7443 223.319C50.4237 223.319 51.2883 223.095 51.1725 222.416C51.0258 221.968 50.5009 221.729 48.54 221.667Z" fill="#001434"/>
<path d="M50.5009 248.286C51.9291 248.286 51.6975 247.26 50.5703 247.005C49.9682 246.873 47.2662 246.557 46.8879 247.537C46.5096 248.518 49.0727 248.286 50.5009 248.286Z" fill="#001434"/>
<path d="M47.6368 238.134C47.1118 238.358 45.9924 239.933 49.9528 239.678C50.7866 239.616 51.4968 239.223 51.0877 238.474C50.6476 237.833 48.1695 237.941 47.6368 238.134Z" fill="#001434"/>
<path d="M50.4235 197.797C49.4291 197.606 48.4072 197.606 47.4127 197.797C46.44 198.021 46.3628 199.225 47.4127 199.341C48.3638 199.411 49.318 199.411 50.2691 199.341C51.7205 199.11 51.4735 197.983 50.4235 197.797Z" fill="#001434"/>
<path d="M39.0681 238.589C38.6203 239.639 41.6234 239.485 43.206 239.485C45.2364 239.485 45.3136 238.057 43.6538 237.941C41.994 237.825 39.5236 237.532 39.0681 238.589Z" fill="#001434"/>
<path d="M66.6669 210.465C64.567 210.203 61.5485 209.94 61.1779 211.237C60.8074 212.534 65.0843 212.102 66.6669 212.009C68.2495 211.917 68.7745 210.728 66.6669 210.465Z" fill="#001434"/>
<path d="M43.4295 246.704C42.0785 246.634 38.9904 246.557 39.2915 247.537C39.5926 248.518 41.7774 248.363 43.7306 248.209C45.6838 248.055 45.1588 246.781 43.4295 246.704Z" fill="#001434"/>
<path d="M43.6538 206.783C43.3295 208.049 47.7917 207.609 48.695 207.555C50.046 207.401 49.7449 206.204 48.2395 206.011C45.1592 205.725 43.8699 205.949 43.6538 206.783Z" fill="#001434"/>
<path d="M43.808 197.681C42.7503 197.48 39.5233 197.457 39.5233 198.453C39.5233 199.449 41.6232 199.225 44.2557 199.225C45.4601 199.186 45.1512 197.936 43.808 197.681Z" fill="#001434"/>
<path d="M117.643 197.079C118.338 197.573 125.363 197.781 125.363 196.777C125.363 196.253 124.761 196.005 123.819 196.005C122.877 196.005 119.079 195.928 118.253 195.928C117.427 195.928 117.195 196.7 117.643 197.079Z" fill="#001434"/>
<path d="M118.7 186.702C116.215 186.625 78.0929 186.625 77.1897 186.625C74.8736 186.625 74.1016 186.849 74.3332 187.397C74.7733 188.27 74.8659 188.169 120.353 188.169C122.831 188.131 121.974 186.78 118.7 186.702Z" fill="#001434"/>
<path d="M72.5649 209.639C72.04 210.913 76.7029 210.542 78.0539 210.411C79.4049 210.28 79.5979 209.06 78.0539 208.867C76.5099 208.674 72.9818 208.28 72.5649 209.639Z" fill="#001434"/>
<path d="M85.9129 196.777C84.863 196.854 84.4847 198.128 85.9129 198.283C94.2506 199.163 94.6829 196.106 85.9129 196.777Z" fill="#001434"/>
<path d="M96.4433 197.025C95.154 197.218 94.8993 198.492 96.4433 198.569C97.9873 198.646 104.279 198.785 103.885 197.743C103.492 196.701 97.6399 196.824 96.4433 197.025Z" fill="#001434"/>
<path d="M10.4188 185.499C10.542 185.462 10.652 185.39 10.7353 185.292C10.8185 185.194 10.8716 185.074 10.8879 184.947C10.9043 184.819 10.8833 184.69 10.8274 184.574C10.7715 184.458 10.6832 184.361 10.5732 184.294C9.80118 183.769 7.78624 184.294 8.68949 185.198C9.21522 185.491 9.82434 185.597 10.4188 185.499Z" fill="#001434"/>
<path d="M1.54024 185.954C3.64782 187.452 21.3885 190.586 25.1482 191.065C26.0578 191.534 27.0593 191.797 28.0818 191.837C38.4576 192.292 59.2092 191.991 64.4743 191.69C69.4383 191.389 71.5459 189.058 72.5186 186.95C73.6457 184.395 78.3858 159.158 78.9108 156.348C79.6828 152.21 79.513 148.828 73.0513 148.45C67.2612 148.149 46.2781 148.079 40.4108 148.002C35.9795 147.925 32.5904 149.878 31.0927 154.394C29.2862 159.798 26.3526 168.978 24.3222 177.856C20.7169 177.856 5.794 178.08 2.44348 179.207C-0.907027 180.334 -0.412942 184.379 1.54024 185.954ZM24.6233 184.148C26.1673 173.918 30.3361 161.512 32.5209 154.973C33.8719 151.059 36.0567 149.484 40.241 149.407C46.4788 149.407 64.5283 149.33 73.1748 149.932C78.216 150.233 78.1388 152.789 77.6138 156.023C76.3323 164.971 72.0477 183.391 71.1444 186.247C70.5422 188.208 68.9674 189.86 64.5283 190.162C53.7202 190.934 32.4205 190.686 28.244 190.308C24.2527 190.015 23.9284 188.131 24.631 184.148H24.6233ZM24.0211 179.33C23.9439 179.562 23.9439 179.786 23.8744 180.102C18.1538 180.55 17.3278 181.075 17.6289 181.53C17.9299 181.986 19.6592 181.978 23.5733 181.754C23.4189 182.434 23.1178 184.163 23.0484 184.387C21.4117 183.244 3.74818 180.334 3.64782 180.326C2.44349 180.311 8.6041 179.33 24.0288 179.33H24.0211ZM2.74457 181.361C6.04876 181.816 12.0087 183.02 17.1811 184.07C25.843 185.869 21.4349 185.854 23.5733 189.413C17.2583 188.355 3.77134 185.831 2.44348 184.781C0.92263 183.499 1.37039 181.06 2.75229 181.361H2.74457Z" fill="#001434"/>
<path d="M105.468 192.192C105.089 190.764 97.4156 191.289 96.2036 191.42C94.9915 191.551 95.3698 192.848 96.2036 192.918C97.0373 192.987 103.646 192.918 104.317 192.918C105.468 192.941 105.614 192.57 105.468 192.192Z" fill="#001434"/>
<path d="M54.6313 258.886C59.9736 258.886 67.1919 258.816 70.4961 258.515C72.6037 258.438 71.7004 257.311 68.9521 257.388C52.3076 257.658 29.5257 258.577 24.5153 253.852C19.9759 249.691 22.3305 221.289 22.3305 196.253C22.3305 193.937 21.9523 193.774 21.5045 193.697C21.0567 193.62 20.8251 194.299 20.8251 196.253C20.8251 221.073 18.3315 249.475 23.4577 254.925C27.7886 259.418 45.6838 258.963 54.6313 258.886Z" fill="#001434"/>
<path d="M101.253 267.61C101.932 267.61 102.534 265.657 102.534 264.452C102.534 262.136 101.106 262.136 100.99 263.626C100.874 265.116 100.504 267.61 101.253 267.61Z" fill="#001434"/>
<path d="M135.314 220.764C135.013 215.653 134.264 215.051 128.621 214.827C118.847 214.48 86.446 214.518 80.8027 215.051C76.8191 215.429 74.1094 215.653 74.1094 220.841C74.1094 226.029 75.4604 246.703 76.3636 252.27C77.1897 257.457 79.2201 257.535 83.8058 257.535C95.687 257.612 124.938 255.991 132.079 254.3C138.564 252.794 137.159 253.065 135.314 220.764ZM79.5134 217.761C84.7168 216.888 83.6051 218.927 82.9025 219.189C81.789 219.44 80.6363 219.463 79.5134 219.258C79.3465 219.217 79.1983 219.12 79.0925 218.985C78.9866 218.849 78.9291 218.682 78.9291 218.51C78.9291 218.338 78.9866 218.17 79.0925 218.035C79.1983 217.899 79.3465 217.803 79.5134 217.761ZM79.8917 223.396C80.8722 223.852 81.9993 224.446 81.9993 225.126C81.9993 225.805 81.5438 226.029 80.27 227.079C79.2123 227.905 78.5407 226.477 79.2895 225.882C79.5906 225.651 79.8917 225.35 80.1156 225.203C79.7373 224.979 79.5906 224.902 79.1429 224.678C78.0157 223.999 78.8495 222.949 79.8994 223.396H79.8917ZM80.27 231.07C80.4645 231.368 80.6892 231.645 80.9416 231.896C81.0188 231.819 81.2427 231.364 81.5438 230.839C81.9993 230.167 83.3503 230.391 82.8253 231.665C81.7291 234.174 80.5093 234.436 79.1429 232.043C78.4481 230.854 79.6755 230.167 80.2854 231.07H80.27ZM83.4275 244.38C83.0492 245.43 82.7481 246.109 82.146 246.256C81.5438 246.402 80.795 245.954 79.8917 244.827C78.9885 243.7 80.3395 243.175 80.8722 243.7C81.4048 244.225 81.6982 244.472 81.7677 244.526C81.9005 244.143 82.0526 243.767 82.2232 243.399C82.532 242.573 83.9602 243.021 83.4352 244.38H83.4275ZM119.596 222.648C120.663 222.477 121.745 222.425 122.823 222.493C123.028 222.484 123.228 222.555 123.38 222.693C123.532 222.83 123.623 223.022 123.634 223.227C123.643 223.431 123.572 223.631 123.434 223.783C123.297 223.935 123.105 224.026 122.9 224.037C118.315 224.987 118.631 222.933 119.604 222.648H119.596ZM112.447 222.949C113.729 222.806 115.021 222.781 116.307 222.871C117.211 222.949 117.512 224.145 116.384 224.415C115.044 224.646 113.678 224.696 112.324 224.562C112.164 224.549 112.013 224.488 111.888 224.389C111.763 224.289 111.67 224.155 111.621 224.003C111.572 223.851 111.569 223.688 111.612 223.534C111.656 223.38 111.744 223.243 111.865 223.139C112.029 223 112.241 222.931 112.455 222.949H112.447ZM111.397 227.079C113.049 227.233 112.679 228.584 112.077 228.739C110.328 228.92 108.57 228.995 106.812 228.963C106.132 228.808 106.132 228.36 106.209 228.137C106.364 227.079 109.977 226.932 111.405 227.079H111.397ZM103.137 217.159C104.36 217.03 105.59 216.978 106.819 217.004C107.869 217.081 107.491 218.286 106.897 218.548C105.664 218.834 104.388 218.883 103.137 218.695C102.079 218.432 102.079 217.228 103.137 217.159ZM93.8728 217.46C95.2579 217.183 96.6785 217.131 98.0802 217.305C99.2073 217.529 98.7596 218.587 98.1574 218.849C97.5552 219.112 94.6216 219.297 93.9422 218.996C93.2629 218.695 92.8305 217.761 93.8882 217.46H93.8728ZM85.8979 217.684C87.26 217.41 88.6572 217.358 90.0359 217.529C90.185 217.592 90.3134 217.695 90.4063 217.827C90.4992 217.96 90.5528 218.115 90.5609 218.277C90.569 218.438 90.5312 218.599 90.452 218.74C90.3727 218.881 90.2552 218.996 90.1131 219.073C88.7435 219.275 87.3559 219.327 85.9751 219.228C85.1645 219.112 85.1645 217.985 85.9134 217.684H85.8979ZM90.337 239.184C90.1826 239.562 87.9283 239.786 87.4033 239.416C86.8784 239.045 86.8784 236.258 87.1023 236.026C87.3261 235.795 88.8316 235.725 89.2098 235.88C90.3215 236.328 90.8002 238.134 90.3215 239.184H90.337ZM84.323 226.477C83.7903 225.952 83.6437 223.852 84.0219 223.389C84.4002 222.926 85.5196 222.941 86.1218 223.01C86.724 223.08 86.5773 223.613 86.8012 223.69C87.0251 223.767 87.4805 223.613 87.9283 223.914C88.3761 224.215 88.4533 226.021 88.0827 226.322C87.4293 226.643 86.6992 226.774 85.9751 226.701C85.0873 226.778 84.6396 226.778 84.3385 226.477H84.323ZM85.095 230.236C85.3266 229.943 85.7744 229.866 87.1254 229.866C87.7276 229.866 87.5037 230.468 87.8974 230.538C88.2626 230.54 88.6223 230.619 88.9551 230.769C89.3256 230.993 89.48 232.799 89.0246 233.17C88.5691 233.541 85.867 233.626 85.3421 233.324C85.0101 233.101 84.794 230.622 85.0873 230.221L85.095 230.236ZM86.145 242.589C86.2994 242.365 86.6699 242.21 88.1059 242.21C88.9319 242.21 88.7775 242.735 89.0014 242.982C89.2253 243.229 89.8352 242.913 90.1362 243.137C90.6612 243.515 90.584 245.615 90.1362 245.769C89.2639 246.063 86.9401 246.117 86.2222 245.545C85.8362 245.128 85.8362 243.098 86.1372 242.573L86.145 242.589ZM91.3329 252.285C91.1862 252.663 88.9319 252.74 88.4069 252.439C87.882 252.138 87.8048 249.127 88.0287 248.826C88.2525 248.525 89.9046 248.448 90.2057 248.602C91.5567 249.112 91.8655 251.065 91.3251 252.27L91.3329 252.285ZM95.0925 252.74C95.0076 252.277 92.5217 223.636 92.46 222.632C92.3905 221.273 93.7415 220.903 94.004 222.478C94.2665 224.053 95.1311 233.533 95.1311 235.262C95.1311 236.991 96.5593 251.428 96.6365 252.555C96.7137 253.682 95.3859 254.3 95.0848 252.725L95.0925 252.74ZM96.3741 223.188C96.4513 221.984 98.1806 222.13 99.0066 222.13C100.211 222.13 100.28 223.188 100.28 224.446C100.28 225.705 99.0838 225.581 97.7251 225.651C96.3663 225.72 96.2891 224.145 96.3663 223.173L96.3741 223.188ZM97.2001 230.252C97.0303 229.279 96.7523 227.851 98.1034 227.627C99.4544 227.403 100.736 227.249 100.883 228.453C101.029 229.657 101.338 230.769 100.057 230.931C99.2228 230.993 97.3931 231.371 97.1924 230.221L97.2001 230.252ZM97.7251 234.012C97.8023 232.815 99.5316 232.962 100.358 232.962C101.639 232.962 101.639 234.012 101.639 235.278C101.639 236.544 100.435 236.405 99.0838 236.482C97.7328 236.559 97.6479 234.977 97.7174 233.996L97.7251 234.012ZM98.4971 240.96C98.3195 239.987 98.0416 238.559 99.4003 238.335C100.759 238.111 102.025 237.956 102.18 239.161C102.334 240.365 102.627 241.477 101.354 241.639C100.504 241.67 98.6746 242.048 98.4739 240.913L98.4971 240.96ZM98.9448 244.719C99.022 243.523 100.751 243.669 101.577 243.669C102.859 243.669 102.928 244.796 102.928 245.985C102.928 247.174 101.724 247.113 100.373 247.19C99.022 247.267 98.8136 245.661 98.9217 244.673L98.9448 244.719ZM102.481 252.169C101.655 252.239 99.8249 252.625 99.6242 251.49C99.4467 250.517 99.1687 249.081 100.527 248.857C101.886 248.633 103.16 248.479 103.307 249.683C103.453 250.888 103.731 251.968 102.457 252.123L102.481 252.169ZM104.434 223.296C106.066 222.959 107.737 222.857 109.398 222.995C110.17 223.142 110.602 224.423 109.398 224.647C108.193 224.871 105.19 225.095 104.434 224.794C104.255 224.765 104.091 224.673 103.972 224.536C103.853 224.399 103.786 224.224 103.783 224.043C103.781 223.861 103.843 223.685 103.957 223.544C104.072 223.403 104.232 223.307 104.411 223.273L104.434 223.296ZM105.978 232.166C107.991 231.834 110.037 231.759 112.069 231.943C113.042 232.166 113.119 233.147 112.138 233.44C110.122 233.738 108.08 233.816 106.047 233.672C105.842 233.679 105.642 233.603 105.491 233.463C105.341 233.323 105.252 233.129 105.244 232.923C105.237 232.717 105.312 232.517 105.453 232.367C105.593 232.216 105.788 232.127 105.993 232.12L105.978 232.166ZM117.102 236.227C117.204 236.227 117.304 236.247 117.398 236.285C117.492 236.324 117.577 236.381 117.649 236.453C117.721 236.524 117.778 236.61 117.816 236.703C117.855 236.797 117.875 236.898 117.874 236.999C117.874 237.204 117.793 237.4 117.648 237.545C117.504 237.69 117.307 237.771 117.102 237.771C115.087 238.072 113.044 238.147 111.011 237.995C110.34 237.841 109.961 236.714 111.011 236.49C113.029 236.161 115.077 236.057 117.118 236.181L117.102 236.227ZM107.476 240.96C110.046 240.643 112.293 240.365 111.992 241.562C111.768 242.465 108.232 242.689 107.553 242.465C106.873 242.241 106.742 241.029 107.491 240.913L107.476 240.96ZM112.517 251.042C111.915 251.714 109.583 251.644 108.456 251.714C107.028 251.791 106.804 250.363 108.232 250.216C109.513 250.064 110.803 250.012 112.092 250.062C112.756 250.092 112.988 250.54 112.532 250.996L112.517 251.042ZM117.102 246.526C114.546 246.889 111.959 246.99 109.382 246.827C108.703 246.68 108.255 245.623 109.382 245.321C111.855 245.076 114.34 244.976 116.825 245.02C116.993 245.032 117.153 245.098 117.28 245.21C117.407 245.322 117.494 245.472 117.526 245.638C117.56 245.804 117.538 245.976 117.465 246.128C117.391 246.28 117.269 246.404 117.118 246.479L117.102 246.526ZM114.702 233.294C114.099 232.992 113.868 231.943 114.702 231.75C117.018 231.371 120.206 231.294 120.337 232.275C120.53 233.618 115.311 233.548 114.717 233.247L114.702 233.294ZM125.224 246.225C123.903 246.398 122.567 246.424 121.24 246.302C120.468 246.155 120.036 244.951 121.24 244.758C122.445 244.565 124.545 244.534 125.448 244.534C126.351 244.534 126.367 246.032 125.239 246.178L125.224 246.225Z" fill="#001434"/>
<path d="M16.7336 186.927C17.8684 187.34 19.0621 187.57 20.2694 187.606C21.0414 187.606 21.1727 186.178 20.4238 185.799C19.2932 185.38 18.0939 185.175 16.888 185.197C16.1315 185.274 16.062 186.548 16.7336 186.927Z" fill="#001434"/>
<path d="M140.131 247.607C138.271 214.835 140.973 212.226 129.153 211.67C115.913 211.137 91.2554 210.767 78.9187 211.67C74.7113 211.971 70.2722 213.098 70.2722 219.938C70.2722 225.581 71.2527 248.062 72.5265 254.3C73.9547 261.673 78.1698 261.673 82.91 261.673C86.438 261.673 91.6259 261.518 97.2693 261.217C97.0454 262.947 96.6671 264.375 96.4433 265.656C94.4129 265.957 91.4793 266.336 90.1282 267.687C87.4957 270.466 90.3521 273.021 93.4324 273.253C95.1617 273.4 96.3661 272.481 94.0346 271.894C92.6836 271.369 89.9507 270.674 91.4021 269.038C92.2204 268.127 94.5596 267.764 96.2194 267.532C96.1422 269.339 97.1149 270.466 99.3074 270.543C101.5 270.62 111.791 269.771 113.59 268.891C114.57 268.366 114.871 267.911 115.095 265.88C117.581 265.957 121.039 267.308 122.537 268.891C122.75 269.151 123.037 269.34 123.359 269.433C123.681 269.527 124.025 269.521 124.344 269.416C125.888 267.764 119.982 264.452 115.319 264.074C115.396 263.549 115.697 260.916 115.774 260.013C138.857 257.875 140.641 257.496 140.131 247.607ZM112.756 267.231C111.644 267.864 101.477 268.667 99.3769 268.667C98.242 268.667 98.1726 268.366 98.1726 268.065C98.1726 267.764 98.3964 265.579 99.2225 261.117C103.963 260.816 109.073 260.515 113.813 260.059C113.427 262.012 113.481 266.822 112.756 267.231ZM82.91 259.866C77.7144 259.789 75.3906 259.565 74.2558 253.93C73.0592 247.753 72.0787 225.504 72.0787 219.861C72.0787 215.051 74.3947 213.924 79.0731 213.469C83.7515 213.013 109.683 212.766 129.076 213.469C134.943 213.7 136.595 214.526 136.974 220.162C137.198 223.397 138.17 243.623 138.325 247.607C138.626 254.223 137.553 254.756 133.515 255.806C124.845 258.114 92.4906 259.866 82.91 259.866Z" fill="#001434"/>
<path d="M14.8577 185.051C14.2556 184.225 11.5458 184.819 12.6035 186.024C13.1207 186.549 15.8305 186.402 14.8577 185.051Z" fill="#001434"/>
<path d="M80.347 203.2C77.8195 203.053 75.2857 203.053 72.7582 203.2C71.8549 203.347 71.9321 204.103 72.2255 204.404C72.9049 205.084 74.7114 204.968 76.2863 204.929C77.4906 204.929 80.347 204.929 81.1036 204.551C81.8601 204.173 81.7057 203.316 80.347 203.2Z" fill="#001434"/>
<path d="M105.898 74.1307C107.904 73.9773 109.893 73.6519 111.843 73.158C113.117 72.8569 114.398 71.614 112.368 71.614C110.016 71.7947 107.678 72.1195 105.366 72.5867C104.316 72.8569 104.316 74.1307 105.898 74.1307Z" fill="#3D9CFB"/>
<path d="M103.861 56.1506C105.22 56.0734 108.98 55.5175 110.184 55.3168C111.234 55.147 111.388 53.6647 109.412 53.8191C100.712 54.3595 102.495 56.2278 103.861 56.1506Z" fill="#3D9CFB"/>
<path d="M60.5977 49.3029C64.2107 49.0018 66.3183 48.7007 66.0018 46.516C65.6235 43.6595 65.5463 41.1737 63.1376 41.3976C58.5056 41.7758 56.7454 41.9997 57.9498 47.1181C58.1891 48.0986 58.6368 49.4496 60.5977 49.3029ZM60.1423 43.2813C62.4583 42.8412 63.8247 42.3857 64.2107 44.0533C64.6045 46.6549 64.9287 47.3961 63.2303 47.5968C61.6863 47.7743 59.6173 48.2684 59.3702 46.6935C59.239 45.5201 58.714 43.5515 60.1423 43.2813Z" fill="#3D9CFB"/>
<path d="M50.1373 31.9172C54.1981 31.315 56.6067 31.5389 56.159 27.8564C55.7807 24.8456 55.634 23.0391 52.546 23.2244C49.6895 23.3711 46.4471 23.7571 46.9798 26.9918C47.3504 28.9836 47.2037 32.2955 50.1373 31.9172ZM52.4533 24.6912C54.4837 24.4673 54.337 26.4282 54.6381 28.0803C54.862 29.5085 54.1131 29.8251 53.6577 29.964C52.5512 30.2654 51.4144 30.4415 50.2686 30.489C48.8403 30.5662 48.6473 28.3814 48.4698 26.876C48.2227 24.6758 50.6623 24.9228 52.4688 24.6758L52.4533 24.6912Z" fill="#3D9CFB"/>
<path d="M57.2853 80.0056C57.8103 78.4615 58.4511 69.5449 58.3353 67.1362C58.3311 66.5837 58.1186 66.0531 57.7401 65.6506C57.3615 65.2481 56.845 65.0033 56.2938 64.9652C55.7426 64.9272 55.1973 65.0987 54.7671 65.4454C54.3369 65.7921 54.0534 66.2884 53.9734 66.8351C53.5256 69.4677 52.5452 78.9479 53.3712 80.3761C54.1973 81.8043 56.7604 81.4338 57.2853 80.0056Z" fill="#3D9CFB"/>
<path d="M62.7052 59.2307C68.3871 58.8061 69.1128 58.312 67.8236 52.7613C67.2214 50.3526 63.9635 51.2559 62.0258 51.6342C59.9182 52.0819 59.841 53.5873 59.9954 54.7917C60.2579 56.5982 60.5976 59.416 62.7052 59.2307ZM65.0212 52.5374C66.82 52.2672 66.6038 54.0814 66.8277 55.471C67.1365 57.3084 65.5847 57.4474 62.9136 57.6558C61.8637 57.7253 61.6321 56.1118 61.4082 54.5678C61.2769 52.9157 63.2996 52.7922 65.0366 52.5374H65.0212Z" fill="#3D9CFB"/>
<path d="M100.858 42.0766C100.086 41.0035 97.6929 41.6288 96.3419 42.0766C94.9909 42.5243 95.2843 43.4276 96.4886 43.582C97.6929 43.7364 101.561 43.1111 100.858 42.0766Z" fill="#3D9CFB"/>
<path d="M51.117 78.5695C50.5149 77.9673 48.2838 76.8093 46.9019 75.7131C45.1263 74.3157 49.0095 71.5751 49.6888 69.9153C50.4608 68.1165 47.504 66.2328 46.0758 68.1165C43.8911 70.8185 38.8962 74.8253 42.54 77.5968C43.6054 78.3688 47.7279 81.5803 49.6116 81.7347C51.2637 81.8814 52.0898 79.7044 51.117 78.5695Z" fill="#3D9CFB"/>
<path d="M160.526 67.2133C163.536 66.9123 173.465 65.7774 174.823 65.4068C175.825 65.2481 176.762 64.8106 177.526 64.1443C178.291 63.478 178.852 62.61 179.146 61.6395C180.42 58.4819 182.906 49.4495 183.284 47.944C184.419 42.8256 180.451 45.7515 165.899 47.0408C164.695 47.118 163.868 45.9909 163.189 44.7248L178.243 42.9183C178.243 42.9183 177.417 40.8493 175.927 41.0423C174.437 41.2353 164.795 42.3933 163.367 42.5477C161.938 42.7021 163.135 40.139 159.831 40.5096C156.527 40.8802 152.149 40.664 151.848 48.716C151.702 52.329 151.779 62.2571 153.508 65.1212C154.28 66.534 157.067 67.5839 160.526 67.2133Z" fill="#3D9CFB"/>
<path d="M74.7407 107.281C76.3233 107.505 83.9198 105.999 85.1242 102.239C84.2981 98.1015 84.1514 94.5657 82.8699 89.8874C73.9146 83.4951 62.6279 92.8287 65.6387 101.63C70.0005 97.3835 78.4309 99.4911 74.7407 107.281Z" fill="#3D9CFB"/>
<path d="M130.649 46.3693C127.869 46.3693 125.909 46.6704 125.762 47.342C125.461 48.114 126.21 48.3225 126.812 48.3225C127.414 48.3225 130.201 48.0214 131.482 47.8747C132.764 47.728 133.436 46.3693 130.649 46.3693Z" fill="#3D9CFB"/>
<path d="M116.954 63.6003C118.089 63.6003 121.995 62.9982 123.2 62.8283C124.404 62.6585 124.636 61.2843 123.053 61.2843C120.976 61.3687 118.91 61.6269 116.877 62.0563C115.379 62.5041 115.843 63.6003 116.954 63.6003Z" fill="#3D9CFB"/>
<path d="M116.653 44.6322C116.429 43.1268 110.107 44.4083 109.134 44.7866C108.161 45.1649 108.007 46.2148 109.203 46.2148C110.4 46.2148 116.885 46.0681 116.653 44.6322Z" fill="#3D9CFB"/>
<path d="M117.557 77.8208C118.537 77.8208 124.126 77.2032 123.277 76.2768C122.428 75.3504 118.313 76.0529 117.487 76.354C116.661 76.6551 116.615 77.8208 117.557 77.8208Z" fill="#3D9CFB"/>
<path d="M158.944 10.1698C158.944 -3.44073 140.083 -2.40624 137.127 7.46002C149.811 6.1476 147.356 16.7936 139.381 14.8404C142.693 17.7277 158.944 17.2413 158.944 10.1698Z" fill="#3D9CFB"/>
<path d="M50.0592 17.2414C50.2366 16.9064 50.3096 16.5261 50.269 16.1493C50.2284 15.7724 50.0759 15.4164 49.8311 15.127C49.5864 14.8376 49.2607 14.6281 48.8958 14.5254C48.531 14.4227 48.1438 14.4316 47.784 14.5509C47.5453 14.63 47.3247 14.7556 47.1349 14.9206C46.9451 15.0856 46.79 15.2867 46.6785 15.5121C45.8139 17.3803 48.7861 19.5806 50.0599 17.2414H50.0592Z" fill="#3D9CFB"/>
<path d="M120.344 92.1956C122.898 91.9326 125.437 91.5306 127.948 90.9913C129.222 90.6902 129.492 89.3314 127.716 89.4472C125.941 89.563 121.841 90.0957 120.421 90.42C119 90.7442 118.692 92.2651 120.344 92.1956Z" fill="#3D9CFB"/>
<path d="M107.774 84.3674C109.504 84.5141 114.344 83.6726 113.649 82.7076C112.955 81.7426 108.755 82.561 108.006 82.862C107.257 83.1631 106.802 84.2902 107.774 84.3674Z" fill="#3D9CFB"/>
<path d="M95.3605 30.6355C97.6147 30.7899 98.5952 27.1769 95.7388 26.7755C92.8823 26.374 92.5735 30.4116 95.3605 30.6355Z" fill="#3D9CFB"/>
<path d="M65.1834 29.81C66.8789 29.6631 68.5629 29.4052 70.2246 29.0379C71.3595 28.8141 71.5061 27.3781 69.9235 27.4939C68.3409 27.6097 66.5421 27.8722 65.0367 28.2659C63.678 28.6828 64.0563 29.81 65.1834 29.81Z" fill="#3D9CFB"/>
<path d="M55.402 35.7538C55.6645 37.2978 56.0814 39.9689 58.1118 39.7451C64.5812 39.1429 64.4345 38.6179 63.0758 33.4995C62.4041 31.2375 59.1694 32.1408 57.2857 32.5963C55.1782 33.1212 55.2013 34.5495 55.402 35.7538ZM60.2194 33.4378C61.8792 33.1212 61.802 34.7116 62.1031 36.0549C62.3269 37.182 62.1031 37.3364 61.6476 37.4831C60.5945 37.8162 59.511 38.0438 58.4129 38.1625C57.5868 38.2397 57.3629 38.0158 56.8302 35.6071C56.4597 33.8778 57.1699 33.9396 60.258 33.4223L60.2194 33.4378Z" fill="#3D9CFB"/>
<path d="M86.2586 30.5663C87.1619 32.5967 90.9988 31.4696 89.9411 28.837C88.8835 26.2045 85.0543 28.0804 86.2586 30.5663Z" fill="#3D9CFB"/>
<path d="M57.3624 14.6398C56.382 12.0845 52.8848 13.8678 53.9733 16.1838C54.8534 18.0598 58.3352 17.0948 57.3624 14.6398Z" fill="#3D9CFB"/>
<path d="M62.7055 12.6557C62.4584 12.6101 62.2045 12.6161 61.9599 12.6733C61.7152 12.7305 61.4851 12.8377 61.2838 12.9881C61.0826 13.1386 60.9147 13.329 60.7906 13.5475C60.6665 13.766 60.5889 14.0077 60.5628 14.2576C60.5366 14.5075 60.5624 14.7601 60.6386 14.9995C60.7147 15.239 60.8396 15.4601 61.0053 15.6489C61.171 15.8378 61.3739 15.9904 61.6014 16.097C61.8289 16.2037 62.076 16.2621 62.3272 16.2687C64.3576 16.4153 65.2608 13.034 62.7055 12.6557Z" fill="#3D9CFB"/>
<path d="M88.1343 57.2002C90.1647 56.8991 94.0942 57.2002 93.4766 54.0427C93.0597 51.8656 93.2604 49.951 90.5429 50.1826C88.5126 50.3679 84.8224 50.5532 85.5789 53.1935C85.8028 54.8687 85.7333 57.5785 88.1343 57.2002Z" fill="#3D9CFB"/>
<path d="M93.5542 87.5247C95.5846 87.2236 99.5758 87.5247 98.9582 84.4367C98.6571 82.2519 98.881 80.3682 96.0941 80.5766C94.0637 80.7233 90.3812 80.9472 91.0529 83.5102C91.2999 85.1932 91.0683 87.903 93.5542 87.5247Z" fill="#3D9CFB"/>
<path d="M70.4556 48.9245C71.4283 48.8473 72.8642 48.3995 73.7675 48.2451C74.6707 48.0907 74.3696 46.7011 73.3892 46.8169C72.3084 46.8949 71.243 47.1242 70.224 47.4963C69.0196 47.944 69.4751 49.0017 70.4556 48.9245Z" fill="#3D9CFB"/>
<path d="M86.5066 47.1179C88.6914 46.8169 92.451 47.0407 91.6945 43.7288C91.2467 41.5518 91.5478 39.367 88.838 39.5214C86.6533 39.5909 83.1175 39.8225 83.874 42.6094C83.9976 44.4854 83.8509 47.4962 86.5066 47.1179Z" fill="#3D9CFB"/>
<path d="M67.5217 39.6682C72.6478 39.1278 70.2237 37.0356 67.2206 38.2399C65.7152 38.8421 66.0858 39.8226 67.5217 39.6682Z" fill="#3D9CFB"/>
<path d="M61.8795 76.0912C61.767 76.4334 61.753 76.8004 61.839 77.1503C61.925 77.5002 62.1075 77.8188 62.3659 78.0699C62.6243 78.3211 62.948 78.4945 63.3001 78.5705C63.6523 78.6465 64.0188 78.622 64.3577 78.4998C66.1642 77.7278 68.9511 73.5281 69.7 72.4782C72.1858 68.8652 67.4457 66.7576 64.5121 64.65C61.8795 62.7663 60.1425 65.7772 61.3469 67.2826C62.3273 68.4869 66.6892 70.0695 65.1143 71.9146C64.0566 73.0803 62.1806 75.2574 61.8795 76.0912Z" fill="#3D9CFB"/>
<path d="M92.2025 77.3653C94.3101 77.0642 98.3786 77.2958 97.4676 74.0611C97.0121 71.8763 97.1665 69.7688 94.3796 70.147C92.272 70.3709 88.8134 70.672 89.5623 73.3045C89.9406 74.9566 89.9406 77.7436 92.2025 77.3653Z" fill="#3D9CFB"/>
<path d="M125.461 104.231C124.179 103.93 123.955 104.154 121.848 105.289C121.4 105.513 120.041 106.192 121.47 106.717C128.696 109.427 128.286 110.122 132.834 107.397C133.436 107.018 134.038 106.192 125.461 104.231Z" fill="#3D9CFB"/>
<path d="M151.122 118.15C151.269 117.78 151.346 110.855 151.192 108.292C151.125 107.87 150.946 107.474 150.675 107.144C150.403 106.814 150.049 106.563 149.648 106.416C149.694 105.513 149.668 104.606 149.571 103.706C149.192 101.599 145.278 100.317 143.171 100.618C141.82 100.773 140.391 101.521 137.828 102.88C137.167 102.715 136.515 102.514 135.875 102.278C136.022 100.549 136.176 99.7921 135.875 98.8888C135.497 97.8389 131.961 96.8585 129.699 96.8585C128.084 97.0129 126.512 97.4714 125.067 98.2095C124.821 98.3616 124.54 98.4485 124.251 98.462C123.962 98.4755 123.674 98.4151 123.415 98.2867C121.531 97.6845 119.424 96.4802 117.694 96.9357C112.051 98.4797 112.576 99.2517 112.73 101.521C111.669 101.024 110.513 100.761 109.341 100.749C108.438 100.749 103.621 101.653 103.096 103.907C102.859 105.299 102.758 106.711 102.795 108.122C100.54 108.724 100.842 117.981 102.115 119.702C105.582 124.442 111.071 120.906 115.51 119.177C115.363 121.733 115.51 124.45 115.965 125.268C116.838 126.812 121.454 128.055 123.415 128.055C125.523 128.055 127.622 126.511 129.661 125.122C131.915 125.894 135.675 128.055 137.859 127.376C142.152 126.102 143.356 125.122 143.202 121.2C145.95 122.52 150.366 120.636 151.122 118.15ZM148.86 109.496C146.49 111.943 143.07 109.952 139.681 109.048C138.701 108.825 138.554 109.048 136.447 110.253C135.991 110.554 135.165 111.025 136.145 111.38C136.971 111.604 138.4 112.206 139.905 112.739C142.221 113.511 139.604 116.043 136.817 116.344C134.03 116.645 131.32 113.711 129.097 114.537C126.009 115.742 123.222 120.189 118.181 115.973C117.278 115.201 122.172 112.661 122.813 112.283C123.793 111.681 123.338 111.002 115.587 108.825C113.935 108.369 113.78 109.048 109.264 111.141C107.465 111.967 105.659 111.141 103.999 110.315C102.949 109.782 104.076 108.956 108.214 107.227C110.623 106.455 106.029 105.497 105.126 104.91C103.852 104.007 107.766 102.347 109.195 102.502C113.109 102.803 113.827 105.358 118.219 103.104C120.481 101.9 114.823 101.313 114.236 100.471C113.927 100.024 116.413 98.7422 118.451 98.5878C119.995 98.4411 123.191 100.317 124.318 100.317C125.445 100.317 128.379 98.2481 130.186 98.2867C131.845 98.3253 134.177 99.1127 133.953 99.6454C133.799 100.016 131.915 100.919 130.788 101.444C129.661 101.969 130.564 102.278 131.012 102.425C136.477 104.316 137.821 104.818 138.732 104.386C141.966 102.649 142.113 102.579 143.364 102.347C144.946 102.124 148.243 103.173 147.88 103.853C147.17 105.196 142.823 106.169 144.715 106.717C147.301 107.45 150.512 107.798 148.86 109.496Z" fill="#3D9CFB"/>
<path d="M78.2758 29.8869C77.3725 31.8401 80.5918 34.1793 81.966 31.6934C83.3402 29.2075 79.4801 27.3315 78.2758 29.8869Z" fill="#3D9CFB"/>
<path d="M100.255 92.3423C100.116 89.3315 96.264 90.7983 94.3803 90.9913C91.9717 91.2152 92.8363 94.0793 93.0293 95.6233C93.176 98.2559 96.5651 97.507 98.5955 97.1287C101.606 96.5575 100.356 94.6815 100.255 92.3423Z" fill="#3D9CFB"/>
<path d="M93.4074 66.9124C96.4105 66.3102 95.1367 64.4265 94.9515 62.0179C94.8048 59.0071 90.9679 60.4739 89.0842 60.6669C86.6755 60.8907 87.5788 63.8244 87.8027 65.2989C87.9879 68.0395 91.3693 67.283 93.4074 66.9124Z" fill="#3D9CFB"/>
<path d="M103.56 80.0751C105.297 80.0751 111.619 78.8321 113.194 78.531C114.769 78.23 114.777 76.794 112.291 77.0951C109.805 77.3962 103.56 78.2994 102.51 78.8321C101.761 79.1718 101.946 80.0751 103.56 80.0751Z" fill="#001434"/>
<path d="M183.1 41.2511C182.356 41.4008 181.603 41.5013 180.845 41.5522C180.313 38.9892 179.186 37.4838 175.874 37.862C164.17 39.0818 164.687 39.7843 164.139 38.634C163.275 36.8044 162.032 36.3721 158.944 36.7503C149.679 38.1708 147.479 37.8698 148.413 46.2306C149.957 59.2698 149.371 66.0249 155.786 66.0249C161.19 66.0943 173.542 64.365 177.835 63.539C180.313 63.0835 181.594 62.7129 183.022 59.4782C184.814 55.0701 186.297 50.543 187.462 45.9295C188.218 42.1544 186.489 41.0273 183.1 41.2511ZM149.811 46.2152C149.139 38.8348 151.03 39.4678 159.214 38.2403C161.924 37.862 162.302 38.3252 162.75 39.4447C163.583 41.3824 163.352 40.9423 175.92 39.3674C178.028 39.1436 178.784 39.5913 179.232 41.7761C173.89 42.4555 163.884 43.7293 161.244 44.1848C157.639 44.7869 155.601 46.2924 154.852 48.7705C153.856 52.5147 153.532 61.1226 152.297 62.767C150.675 58.6445 150.583 52.4684 149.811 46.2152ZM186.095 45.613C184.897 50.1318 183.441 54.5782 181.733 58.9301C180.529 61.6399 179.772 61.8637 177.595 62.1725C174.955 62.5431 155.392 65.855 153.362 63.9713C153.964 63.5236 154.566 62.242 155.168 58.4823C156.712 48.3305 155.786 46.717 161.792 45.613C165.328 44.9336 177.68 43.5208 182.636 42.9032C185.323 42.579 186.69 42.8415 186.095 45.613Z" fill="#001434"/>
<path d="M123.956 80.3761C122.296 80.3375 117.332 80.9783 116.235 81.5804C115.139 82.1826 115.031 83.0086 116.313 83.1244C117.594 83.2402 123.832 81.9973 124.666 81.9201C125.5 81.8429 125.685 80.4147 123.956 80.3761Z" fill="#001434"/>
<path d="M152.172 100.171C155.028 99.7151 169.781 97.3836 174.444 96.4804C182.419 94.8515 181.887 93.5082 177.455 67.8158C177.007 65.631 175.803 67.3603 176.328 70.3711C179.47 91.3002 181.192 93.3306 174.668 94.7511C171.21 95.5771 152.55 98.6111 150.443 98.9663C148.335 99.3214 149.316 100.618 152.172 100.171Z" fill="#001434"/>
<path d="M104.694 49.3031C103.79 49.6042 103.559 50.8085 104.763 50.8085C105.967 50.8085 110.167 50.4302 109.58 49.4498C108.994 48.4693 105.597 49.002 104.694 49.3031Z" fill="#001434"/>
<path d="M104.539 65.4069C106.711 65.1899 108.87 64.8627 111.008 64.4264C112.367 64.2026 113.572 62.5427 111.086 62.7666C108.6 62.9905 105.52 63.2993 104.091 64.1254C103.188 64.5036 103.79 65.4069 104.539 65.4069Z" fill="#001434"/>
<path d="M113.719 87.5251C112.816 87.9034 113.348 88.9533 114.622 88.8838C117.05 88.6073 119.462 88.2053 121.848 87.6795C123.392 87.224 123.13 86.1355 121.694 86.1355C119.001 86.3748 116.333 86.8396 113.719 87.5251Z" fill="#001434"/>
<path d="M161.05 86.6217C163.683 86.3978 163.011 82.5609 160.603 83.0087C160.257 83.067 159.936 83.2236 159.677 83.4597C159.419 83.6957 159.233 84.0013 159.144 84.3399C159.054 84.6785 159.064 85.0357 159.172 85.3689C159.28 85.702 159.481 85.9971 159.753 86.2187C160.117 86.5158 160.582 86.6602 161.05 86.6217Z" fill="#001434"/>
<path d="M156.913 85.4176C156.728 85.0047 156.396 84.6749 155.982 84.4916C155.568 84.3083 155.101 84.2846 154.671 84.4248C154.241 84.5661 153.878 84.8618 153.654 85.2548C153.429 85.6478 153.358 86.1102 153.454 86.5525C153.979 89.0306 157.893 87.8263 156.913 85.4176Z" fill="#001434"/>
<path d="M170.16 78.948C169.859 77.6664 167.45 78.1219 166.3 76.8404C165.018 75.4122 165.844 71.9536 163.814 70.5948C162.085 69.3905 158.773 70.7492 159.22 71.7992C159.9 73.1579 161.251 71.722 162.386 72.5712C163.814 73.6211 163.358 77.0797 164.416 78.3612C165.396 79.4884 167.203 79.3417 167.203 79.72C167.203 80.2449 165.767 80.492 165.319 82.036C164.872 83.58 166.369 86.6217 165.921 87.9032C165.396 89.3315 162.988 88.2043 162.911 89.6325C162.833 90.6902 166.369 91.5162 168.029 89.0304C169.233 87.2239 167.049 84.0664 167.496 82.7076C168.052 81.1327 170.53 80.6078 170.16 78.948Z" fill="#001434"/>
<path d="M125.878 52.839C125.044 51.4802 118.289 52.5688 116.922 53.0629C115.556 53.5569 115.718 54.7227 117.447 54.6069C119.177 54.4911 126.441 53.8889 125.878 52.839Z" fill="#001434"/>
<path d="M109.959 36.0554C108.005 36.0554 97.7686 37.2597 96.3404 37.638C94.9121 38.0163 94.8349 39.182 96.0393 39.182C97.2436 39.182 109.163 37.7461 110.638 37.5222C112.112 37.2983 111.387 36.0554 109.959 36.0554Z" fill="#001434"/>
<path d="M119.139 58.783C120.683 58.482 120.042 57.2004 117.935 57.3548C115.563 57.5271 113.202 57.8287 110.863 58.2581C109.582 58.5592 110.091 59.6091 111.164 59.6091C112.237 59.6091 117.556 59.0069 119.139 58.783Z" fill="#001434"/>
<path d="M99.4985 47.4966C100.78 47.4194 103.938 46.8944 104.54 46.8172C105.142 46.74 105.59 45.9371 104.617 45.6129C103.783 45.335 100.556 45.6901 99.3518 45.9912C98.1475 46.2923 98.217 47.6433 99.4985 47.4966Z" fill="#001434"/>
<path d="M114.854 39.7454C111.897 39.7979 108.951 40.1005 106.045 40.6487C104.995 41.027 104.841 42.1927 106.122 42.1927C107.404 42.1927 113.95 41.4207 115 41.2894C116.05 41.1582 116.428 39.8226 114.854 39.7454Z" fill="#001434"/>
<path d="M110.26 69.2437C111.804 69.0893 118.389 68.0394 119.817 67.8155C121.246 67.5916 121.022 65.9318 118.69 66.2715C117.146 66.4954 112.892 66.7965 110.105 67.553C108.6 67.9082 109.202 69.3132 110.26 69.2437Z" fill="#001434"/>
<path d="M114.552 48.1761C113.417 48.4772 113.873 49.6043 115.378 49.6043C116.884 49.6043 123.029 49.2415 122.149 48.0217C121.269 46.8019 115.679 47.875 114.552 48.1761Z" fill="#001434"/>
<path d="M99.5753 60.9602C100.625 61.1069 104.694 60.3581 105.52 60.1265C105.622 60.1168 105.72 60.0871 105.811 60.0392C105.901 59.9912 105.981 59.9258 106.046 59.8469C106.111 59.7679 106.159 59.6769 106.189 59.5791C106.219 59.4813 106.229 59.3786 106.218 59.2769C106.208 59.1752 106.178 59.0765 106.13 58.9865C106.081 58.8965 106.016 58.8169 105.936 58.7524C105.857 58.6878 105.766 58.6396 105.668 58.6105C105.57 58.5813 105.467 58.5718 105.365 58.5825C104.238 58.5825 100.556 58.8835 99.4981 59.4162C98.4405 59.9489 98.5177 60.8136 99.5753 60.9602Z" fill="#001434"/>
<path d="M73.2343 23.6414C71.2811 23.7881 63.6074 24.5446 60.2183 25.5251C59.3922 25.749 59.315 27.0305 60.9903 26.8761C62.6655 26.7217 73.1803 25.224 74.7552 24.9924C76.33 24.7608 76.0212 23.4175 73.2343 23.6414Z" fill="#001434"/>
<path d="M68.2704 108.593C69.0126 109.035 69.8469 109.298 70.708 109.364C71.5691 109.43 72.4338 109.295 73.2344 108.971C74.0402 109.72 75.0801 110.166 76.1777 110.235C77.2752 110.304 78.3628 109.991 79.256 109.35C79.9354 108.747 79.256 107.806 78.43 108.222C77.8306 108.553 77.1573 108.726 76.4729 108.726C75.7885 108.726 75.1153 108.553 74.5159 108.222C75.0174 107.75 75.4141 107.177 75.6801 106.541C75.9461 105.906 76.0755 105.221 76.0599 104.532C77.187 103.251 76.6621 100.394 74.4773 100.248C73.273 98.7036 69.0732 98.3639 67.0274 100.618C64.2482 101.22 64.3177 104.308 66.0547 105.513C66.1732 106.316 66.5097 107.072 67.0274 107.697C66.4688 107.999 65.832 108.124 65.2009 108.057C64.5697 107.989 63.9738 107.732 63.4916 107.319C63.0516 106.856 62.5112 107.165 62.5112 107.543C62.4726 109.195 66.0084 110.369 68.2704 108.593ZM74.9714 102.347C75.0992 102.606 75.1221 102.904 75.0353 103.179C74.9484 103.455 74.7586 103.686 74.5055 103.824C74.2523 103.963 73.9554 103.998 73.6768 103.923C73.3982 103.848 73.1595 103.668 73.0105 103.421C72.9037 103.227 72.857 103.005 72.8763 102.785C72.8955 102.564 72.9799 102.355 73.1187 102.182C73.2574 102.01 73.4443 101.883 73.6556 101.817C73.8668 101.751 74.0929 101.749 74.3051 101.812C74.5892 101.895 74.8301 102.087 74.9714 102.347ZM72.4083 100.695C71.9531 101.061 71.6326 101.567 71.4973 102.135C71.3621 102.703 71.42 103.299 71.6617 103.831C71.9034 104.362 72.3152 104.797 72.8321 105.068C73.349 105.339 73.9414 105.431 74.5159 105.327C74.4907 105.652 74.3972 105.968 74.2415 106.254C74.0859 106.54 73.8716 106.79 73.6126 106.987C72.9642 105.358 71.5745 106.709 72.2616 107.759C71.3461 107.983 70.3902 107.983 69.4747 107.759C70.3007 107.234 70.3007 106.555 69.6986 106.331C69.3203 106.184 68.7258 106.555 68.1546 106.933C67.9068 106.638 67.704 106.307 67.5524 105.953C70.1927 105.953 70.8797 102.247 68.8262 100.989C69.3678 100.687 69.9677 100.505 70.5855 100.454C71.2033 100.404 71.8248 100.486 72.4083 100.695ZM67.2899 102.046C68.9497 101.977 69.0192 104.609 67.2899 104.455C65.9389 104.308 65.8617 102.124 67.2899 102.046Z" fill="#001434"/>
<path d="M60.4426 95.8781C61.8013 95.8009 62.1024 94.5271 62.6273 93.1684C63.1523 91.8096 63.6773 89.8565 64.511 89.5554C64.9588 89.4087 65.7848 90.0109 66.1631 91.138C66.5414 92.2651 67.9696 91.7402 67.2208 89.9337C66.387 87.9033 64.9665 87.6176 64.1328 87.8261C62.4884 88.243 61.5002 92.4581 60.4426 94.3727C58.3813 94.033 58.1729 96.0248 60.4426 95.8781Z" fill="#001434"/>
<path d="M60.2963 104.532C62.3266 104.532 62.4733 103.482 62.4733 101.444C62.4733 100.394 62.2494 97.9085 63.6082 98.2096C64.2798 98.4412 64.5809 98.364 64.6581 97.9085C64.9592 96.3645 62.3421 96.3645 61.5701 97.839C60.9679 99.0433 61.5701 101.22 61.0374 102.471C60.8907 102.849 60.0647 103.243 59.833 103.297C59.0919 103.629 59.3158 104.532 60.2963 104.532Z" fill="#001434"/>
<path d="M65.9392 34.0248C64.8816 34.3259 65.4142 35.453 66.2403 35.5688C67.7487 35.4604 69.2389 35.1727 70.6793 34.7119C71.7215 34.4417 72.6479 32.1102 65.9392 34.0248Z" fill="#001434"/>
<path d="M71.8379 53.8191C73.2661 53.5875 74.5476 53.0471 74.2465 52.5376C73.9455 52.0281 73.4205 51.9355 71.5368 52.3832C69.6531 52.831 70.3788 54.0122 71.8379 53.8191Z" fill="#001434"/>
<path d="M72.3319 95.7006C73.3123 92.8365 75.0416 89.3007 78.5774 88.5518C80.4611 88.0964 79.1796 87.1931 77.0334 87.7258C73.266 88.6985 71.5444 92.0953 71.1584 95.1679C70.9423 96.7119 71.9613 96.8586 72.3319 95.7006Z" fill="#001434"/>
<path d="M69.174 44.6322C70.2483 44.5707 71.3099 44.3682 72.3315 44.0301C73.3891 43.6595 73.5358 42.3008 72.3315 42.486C66.4333 42.8257 68.3093 44.6322 69.174 44.6322Z" fill="#001434"/>
<path d="M47.5038 60.8905C48.1059 64.048 49.6885 64.7505 49.3797 62.7665C49.0709 60.7824 43.9757 33.1214 42.5397 19.6499C42.2387 16.9556 41.9376 13.0955 49.0864 12.2C59.2305 10.8799 107.265 6.34047 116.127 5.88499C122.403 5.59162 125.067 6.95808 125.985 18.4455C126.14 20.3292 127.529 19.5804 127.267 16.7934C126.186 8.17785 124.835 3.77741 116.05 4.37957C102.925 5.20562 66.6874 8.51753 48.8849 10.7718C40.1612 11.8989 40.8328 17.0945 41.1648 20.1826C41.7284 26.9299 46.6152 56.243 47.503 60.8905H47.5038Z" fill="#001434"/>
<path d="M144.576 5.37567C147.509 2.97473 150.96 2.62732 152.628 3.05965C154.295 3.49197 154.882 2.00972 152.929 1.55423C149.764 0.882589 145.849 1.63143 143.819 4.34118C142.692 5.80799 144.043 5.80799 144.576 5.37567Z" fill="#001434"/>
<path d="M132.386 9.49842C131.854 11.5983 132.757 13.2581 135.019 13.9375C133.737 14.7635 132.911 16.1145 134.563 18.3765C133.135 19.2026 133.66 20.0132 134.563 19.8819C138.663 19.272 133.791 16.7398 135.544 15.3657C135.936 15.0545 136.367 14.7951 136.825 14.5937C137.389 15.2281 138.109 15.7043 138.913 15.9751C139.717 16.2459 140.578 16.3019 141.411 16.1377C144.499 18.9941 147.209 16.323 146.452 15.3116C146.228 15.0106 145.68 15.1572 145.402 15.4583C145.123 15.7519 144.744 15.9306 144.34 15.9591C143.936 15.9877 143.535 15.8642 143.218 15.6127C143.789 15.4827 144.321 15.216 144.768 14.8355C145.214 14.455 145.562 13.972 145.781 13.4279C146.1 13.1447 146.352 12.793 146.517 12.3991C146.682 12.0052 146.756 11.5791 146.734 11.1526C146.712 10.7261 146.593 10.3101 146.388 9.93555C146.183 9.56095 145.896 9.23738 145.549 8.9889C145.024 7.2596 141.789 5.5303 138.555 6.67287C138.002 6.51949 137.415 6.54097 136.875 6.73436C136.335 6.92776 135.868 7.2836 135.538 7.75304C135.208 8.22247 135.031 8.7825 135.032 9.35625C135.033 9.92999 135.212 10.4893 135.544 10.9575C135.544 10.9575 135.621 12.0152 135.69 12.4629C135.391 12.4413 135.099 12.3604 134.831 12.2249C134.563 12.0893 134.325 11.9019 134.13 11.6734C133.936 11.445 133.788 11.1801 133.697 10.8941C133.606 10.6082 133.572 10.307 133.598 10.0079C133.714 8.81133 132.61 8.81905 132.386 9.49842ZM145.248 11.8994C145.193 12.0605 145.108 12.2093 144.995 12.3371C144.883 12.465 144.747 12.5693 144.594 12.6442C144.441 12.7191 144.275 12.7629 144.105 12.7733C143.936 12.7837 143.765 12.7604 143.605 12.7048C143.444 12.6491 143.296 12.5622 143.169 12.449C143.042 12.3358 142.938 12.1986 142.865 12.0453C142.791 11.892 142.748 11.7256 142.739 11.5557C142.73 11.3859 142.755 11.2159 142.811 11.0556C142.925 10.7349 143.161 10.4721 143.468 10.3246C143.774 10.1772 144.127 10.1569 144.448 10.2682C144.77 10.3796 145.034 10.6136 145.184 10.9191C145.334 11.2246 145.357 11.577 145.248 11.8994ZM140.137 7.99301C141.253 7.90538 142.365 8.19641 143.295 8.81905C140.431 9.59106 140.724 13.3276 143.218 14.1613C142.887 14.4115 142.5 14.5759 142.09 14.64C141.918 14.3882 141.79 14.1088 141.712 13.8139C141.488 13.2118 140.207 13.2118 140.361 14.64C140.034 14.6969 139.697 14.6717 139.382 14.5666C139.067 14.4615 138.782 14.2798 138.555 14.0378C139.682 13.5901 139.458 12.4938 137.427 12.6868C137.342 12.5238 137.289 12.3453 137.273 12.1618C137.427 12.1618 137.651 12.2313 137.798 12.2313C140.137 12.324 141.11 9.6451 140.137 7.99301ZM136.524 9.23594C136.779 7.19784 140.06 8.40989 138.778 10.1392C138.615 10.3658 138.38 10.5313 138.112 10.6095C137.844 10.6876 137.557 10.674 137.297 10.5707C137.038 10.4664 136.821 10.2783 136.681 10.0364C136.541 9.79455 136.486 9.51276 136.524 9.23594Z" fill="#001434"/>
<path d="M130.579 61.9405C132.008 61.9405 136.755 61.2689 137.728 61.1145C139.079 60.8906 139.079 59.5704 137.728 59.5704C136.377 59.5704 131.027 60.0259 129.746 60.5509C128.464 61.0759 129.074 61.9405 130.579 61.9405Z" fill="#001434"/>
<path d="M170.909 35.6074C171.21 37.4139 172.569 36.8117 172.113 33.6465C170.114 19.6732 170.708 17.5579 160.911 17.9207C161.737 17.859 161.892 16.8631 159.846 16.6392C160.147 14.0839 161.869 10.2238 159.622 9.64481C159.108 9.59619 158.59 9.65107 158.098 9.80622C157.606 9.96136 157.151 10.2136 156.758 10.5481C156.079 11.3201 156.758 12.2928 157.53 11.8991C158.302 11.5053 158.889 11.1271 159.112 11.2969C159.939 11.9763 157.306 17.1719 159.112 18.0751L156.024 18.299C155.87 17.0715 154.287 17.6428 154.596 16.7164C155.044 14.9099 156.248 11.6752 155.368 10.0231C154.843 9.04265 153.569 8.59488 151.23 9.49813C149.879 10.0231 150.258 11.598 151.385 11.2274C153.191 10.6253 153.786 10.7025 154.017 11.073C154.249 11.4436 153.569 14.9331 153.037 16.6392C152.91 16.9945 152.908 17.3827 153.031 17.7393C153.155 18.0959 153.396 18.3996 153.716 18.6001C152.435 18.6773 151.084 18.824 149.725 18.9784C150.783 17.473 152.512 15.0643 151.385 13.9372C150.783 13.335 149.841 13.2578 148.521 13.4045C147.393 13.5589 147.17 15.1415 148.297 15.0643C149.069 15.0643 149.802 14.9099 150.026 15.1415C150.404 15.5893 147.918 18.299 147.849 19.0479C96.6957 23.9038 83.533 24.8456 79.4799 25.6717C74.5931 26.7293 72.8638 30.4118 73.991 37.7845C74.8942 43.8061 78.8083 67.8928 80.7615 79.7045C74.9251 80.9628 64.117 83.4564 59.6934 83.1631C58.5663 83.0859 58.7129 84.2902 59.6934 84.5141C63.6461 85.178 71.9452 82.9701 80.9854 81.1327C81.3636 83.4487 84.5675 100.788 85.5016 105.134C86.8835 111.31 88.9216 111.48 99.9536 108.994C101.382 108.616 100.78 107.188 97.9927 107.721C88.7981 109.458 87.8485 109.55 86.8603 104.779C83.7723 90.7365 77.3415 50.4917 75.342 37.6146C74.1531 29.4391 76.832 27.6326 79.7115 27.0999C89.7476 25.2548 116.598 23.8111 147.509 20.5533C148.814 22.298 150.304 21.8734 149.825 20.3294C154.565 19.8816 158.479 19.5574 160.811 19.5033C169.697 19.3412 168.701 19.7272 170.909 35.6074Z" fill="#001434"/>
<path d="M164.285 25.2935C162.162 25.4479 85.4163 33.0599 80.0818 33.94C77.372 34.3955 76.4688 35.9009 79.0318 35.5998C81.5949 35.2987 163.837 26.7912 166.091 26.5673C168.345 26.3435 166.994 25.0697 164.285 25.2935Z" fill="#001434"/>
<path d="M147.587 86.2509C147.398 86.6891 147.391 87.1843 147.567 87.6278C147.742 88.0714 148.087 88.4271 148.525 88.6171C148.963 88.8059 149.458 88.8136 149.903 88.6387C150.346 88.4623 150.701 88.1172 150.891 87.6791C151.871 85.1932 148.335 84.2128 147.587 86.2509Z" fill="#001434"/>
<path d="M145.78 73.9068C145.85 72.6253 141.187 72.6253 140.507 74.81C139.828 76.9948 141.187 79.3263 140.662 81.21C140.206 82.9393 137.651 83.2404 137.798 84.5914C137.944 85.9424 140.886 85.7185 141.789 86.8534C142.692 87.9882 141.789 91.3619 143.595 92.7978C145.78 94.5271 149.841 92.9445 148.559 91.5163C147.88 90.613 146.081 92.3423 145.178 91.138C143.974 89.5554 144.406 87.2239 143.441 85.7339C142.669 84.5296 141.04 84.684 140.808 84.3057C140.577 83.9274 142.468 83.1014 142.916 81.7504C143.441 80.2064 142.013 77.1183 142.538 75.8754C143.063 74.6325 145.703 75.4122 145.78 73.9068Z" fill="#001434"/>
<path d="M83.4712 110.855C85.656 110.855 85.2854 109.55 84.2432 109.195C83.0466 108.802 82.8922 108.894 83.0389 105.961C83.34 101.676 83.4712 100.178 82.7378 98.6651C81.8809 96.8741 79.2792 98.1402 77.7738 100.171C77.0018 101.143 77.9282 102.726 78.7542 101.753C80.4063 99.8694 81.0703 99.8694 81.3096 99.9466C81.8423 100.248 81.3868 104.231 81.2401 106.192C81.1011 108.894 80.6843 110.855 83.4712 110.855Z" fill="#001434"/>
<path d="M136.145 45.8366C134.941 46.2148 134.941 47.3806 136.222 47.3806C147.239 47.342 142.09 43.976 136.145 45.8366Z" fill="#001434"/>
<path d="M53.07 48.5462C54.0505 48.3995 54.7299 47.0022 54.9537 45.5354C55.1004 44.6321 54.8765 44.1844 54.1817 44.2616C53.2785 44.3311 53.209 46.8169 52.7535 46.8169C52.298 46.8169 51.5492 45.767 51.1709 45.2729C51.0896 45.1589 50.9742 45.0735 50.8414 45.029C50.7086 44.9845 50.5651 44.9832 50.4315 45.0251C50.2979 45.0671 50.1809 45.1503 50.0974 45.2627C50.0139 45.3752 49.9681 45.5111 49.9666 45.6512C49.8894 46.8169 52.0896 48.7006 53.07 48.5462Z" fill="#001434"/>
<path d="M49.9119 40.193C49.7575 40.7952 50.4368 41.4745 51.039 41.0268C51.8651 40.4941 53.2933 38.3865 53.2933 37.6376C53.2238 36.6572 50.9773 35.7539 49.7575 35.6073C49.5942 35.6155 49.4378 35.6754 49.3108 35.7783C49.1837 35.8811 49.0926 36.0217 49.0505 36.1796C49.0085 36.3376 49.0176 36.5048 49.0767 36.6572C49.1358 36.8096 49.2417 36.9394 49.3792 37.0278C50.1512 37.2516 51.4868 37.6299 51.4868 38.0082C51.4868 38.3865 50.0586 39.2203 49.9119 40.193Z" fill="#001434"/>
<path d="M118.088 11.5982C114.228 11.9765 51.3407 19.1252 48.7082 19.6502C46.0756 20.1752 45.7745 21.6111 47.6505 21.31C49.5265 21.0089 117.332 13.1808 119.964 12.9569C122.597 12.733 121.925 11.2276 118.088 11.5982Z" fill="#001434"/>
</svg>
