<svg width="210" height="320" viewBox="0 0 210 320" fill="none" xmlns="http://www.w3.org/2000/svg">
<path d="M90.3041 7.06415C77.1414 17.1466 73.0035 41.0325 81.8121 52.7361C83.0164 54.3882 84.0663 53.6393 83.8424 52.7361C77.0719 26.3952 115.827 15.4867 105.737 14.9618C103.336 14.8074 98.9661 16.0889 94.7509 16.9922C91.2151 17.8182 95.5847 9.46509 97.0129 6.23038C97.8312 4.35441 94.6814 3.75224 90.3041 7.06415Z" fill="#3D9CFB"/>
<path d="M202.199 5.78225C200.392 6.23001 200.238 0.285556 198.81 2.31594C198.038 3.45079 198.207 6.00613 196.702 6.38441C194.448 6.90938 189.183 7.21046 194.973 9.09416C196.625 9.61912 196.254 10.2985 196.023 10.9007C195.127 13.456 195.127 14.1354 195.251 14.4364C196.077 15.6408 198.864 10.2213 200.369 11.1245C203.75 13.0082 203.982 13.3093 204.507 13.0082C205.032 12.7072 204.051 11.2712 203.303 9.92021C202.268 7.88983 208.668 4.27683 202.199 5.78225Z" fill="#3D9CFB"/>
<path d="M71.6448 132.846C73.3046 133 77.3653 129.835 80.4534 126.222C83.5414 122.764 85.1935 119.073 84.0586 118.502C82.6073 117.923 83.8734 122.903 71.5676 132.128C71.2665 132.344 71.2665 132.792 71.6448 132.846Z" fill="#3D9CFB"/>
<path d="M105.582 0.663898C101.899 5.09522 101.668 7.73549 103.096 9.3181C104.903 11.3485 109.419 11.5029 111.905 10.9702C113.634 10.5996 114.537 8.79313 112.955 9.2409C109.195 10.2213 105.428 9.46478 104.378 8.26817C103.328 7.07156 104.076 5.6279 105.96 2.69428C107.033 0.964981 106.2 -0.0772287 105.582 0.663898Z" fill="#3D9CFB"/>
<path d="M208.066 113.986C209.417 109.014 202.801 116.394 201.295 113.908C199.636 111.276 198.81 110.218 198.207 110.442C196.177 111.276 199.111 116.765 196.1 118.494C189.785 122.038 189.553 121.96 196.702 123.234C199.018 123.69 197.158 129.781 198.13 131.286C200.168 134.297 201.295 122.864 204.229 123.914C205.773 124.369 212.204 126.778 208.668 122.37C205.21 118.046 206.862 118.494 208.066 113.986Z" fill="#3D9CFB"/>
<path d="M73.451 116.464C72.9338 116.927 72.4706 118.193 73.976 117.745C76.1608 117.066 79.9204 110.596 78.4922 109.693C78.1139 109.469 77.8901 109.616 77.7202 109.994C76.7791 112.433 75.3229 114.639 73.451 116.464Z" fill="#3D9CFB"/>
<path d="M113.935 0.0616909C112.661 -0.416954 110.075 2.02259 111.225 3.3736C112.16 4.49301 117.015 4.19965 122.512 4.19965C123.67 4.19965 120.196 6.12195 118.652 6.83219C116.846 7.66596 117.108 8.93977 119.03 8.26813C124.597 6.08335 126.928 3.14972 122.489 2.86408C119.934 2.70968 113.364 3.2578 112.63 2.40859C112.268 1.95311 114.692 0.347334 113.935 0.0616909Z" fill="#3D9CFB"/>
<path d="M79.4729 65.8979C83.1554 66.8012 85.3402 67.635 85.4946 70.0436C86.1662 82.3023 90.0803 78.0872 94.2955 71.7729C96.7813 68.0827 109.118 78.1644 106.864 70.8697C104.64 63.9216 102.232 63.5356 104.756 60.0616C110.098 52.7661 107.389 52.5422 105.127 52.8433C102.494 53.2139 100.317 53.5149 98.7345 53.8932C95.0443 54.7193 89.9336 41.9271 87.4478 47.6477C85.9037 51.1835 87.6716 56.078 84.4369 57.3518C72.8491 61.9916 74.3545 64.6241 79.4729 65.8979Z" fill="#3D9CFB"/>
<path d="M87.8956 136.258C82.7849 142.272 79.1719 144.38 80.4535 144.835C81.9511 145.36 87.525 138.891 88.7294 137.532C89.9337 136.173 90.1576 133.695 87.8956 136.258Z" fill="#3D9CFB"/>
<path d="M181.957 126.477C179.695 127.38 177.062 125.875 174.731 126.4C172.252 127.002 170.871 129.334 168.639 129.712C164.949 130.314 160.665 127.604 158.179 131.518C155.994 134.522 153.964 131.518 151.03 131.889C148.845 132.19 146.437 133.433 147.039 134.522C147.718 135.803 149.355 133.927 151.177 133.75C153.284 133.595 153.964 134.954 156.372 134.73C157.014 134.669 157.633 134.46 158.181 134.12C158.729 133.78 159.191 133.318 159.53 132.769C161.491 129.913 165.173 132.097 168.941 131.565C171.874 131.117 172.801 128.786 175.117 128.253C176.923 127.882 178.977 129.025 180.907 128.631C183.462 128.214 183.084 126.022 181.957 126.477Z" fill="#001434"/>
<path d="M196.401 46.7139C196.135 48.022 195.784 49.3114 195.351 50.5739C194.71 52.3727 196.501 52.4654 196.895 51.4772C198.107 48.0495 200.578 41.6959 195.768 34.9253C193.282 31.459 192.093 33.3273 192.904 34.1533C194.395 35.8482 195.484 37.8581 196.089 40.0329C196.695 42.2077 196.802 44.4913 196.401 46.7131V46.7139Z" fill="#001434"/>
<path d="M134.478 116.464C133.183 115.786 131.714 115.516 130.263 115.692C125.523 115.916 125.299 110.126 119.053 111.322C111.912 112.666 114.321 106.165 106.863 106.582C106.73 106.583 106.6 106.618 106.484 106.684C106.369 106.75 106.272 106.844 106.203 106.958C106.135 107.072 106.097 107.202 106.094 107.335C106.09 107.468 106.121 107.6 106.184 107.717C106.709 108.62 107.766 108.088 109.642 108.844C111.518 109.601 111.449 111.554 114.081 112.758C117.393 114.302 119.053 112.38 121.609 113.059C124.619 113.831 126.241 118.023 130.263 117.568C134.547 117.043 135.605 121.938 138.392 122.015C140.268 122.084 140.345 120.401 138.84 120.278C137.635 120.208 136.284 117.406 134.478 116.464Z" fill="#001434"/>
<path d="M78.7159 106.536C76.1694 105.829 73.5383 105.473 70.8954 105.478C61.1373 105.641 62.828 108.18 63.6695 108.041C76.3844 105.779 85.9419 109.315 91.7396 118.726C87.8796 126.546 79.2486 136.258 66.0781 143.029C65.6226 143.253 66.0009 144.457 68.8651 143.407C79.4725 139.339 89.8559 126.099 92.8668 120.602C96.1165 127.251 97.2868 134.725 96.225 142.048C96.1555 142.573 96.5261 143.106 97.0588 142.874C99.3285 141.902 99.3748 128.029 93.8935 118.572C100.857 101.703 86.683 100.87 78.7159 106.536ZM92.612 116.688C89.8332 112.474 85.8215 109.219 81.1245 107.37C90.157 102.321 97.1514 106.536 92.6429 116.688H92.612Z" fill="#001434"/>
<path d="M174.507 20.3808C177.966 21.1937 181.27 22.5653 184.288 24.4415C185.492 25.2676 186.396 23.7622 184.512 22.4112C181.753 20.69 178.689 19.5158 175.487 18.9526C173.827 18.721 172.553 19.8481 174.507 20.3808Z" fill="#001434"/>
<path d="M174.507 60.9339C184.435 63.0415 190.912 51.9786 191.962 44.3821C192.942 37.6116 177.664 21.8858 168.107 23.4607C151.47 26.0932 150.196 55.7692 174.507 60.9339ZM179.694 37.4572C183.006 37.0789 183.84 43.4788 179.996 43.7799C176.313 44.0655 175.858 37.8354 179.694 37.4572ZM170.747 27.6758C173.302 29.9378 163.899 35.1257 164.347 42.5756C164.571 47.0146 172.175 50.1026 170.523 53.0363C168.871 55.9699 159.537 48.1417 159.236 42.3517C158.704 34.1453 168.022 25.3444 170.747 27.6758Z" fill="#001434"/>
<path d="M200.538 82.3022C199.766 82.0011 199.033 82.6804 199.635 83.2826C200.812 84.1751 201.895 85.1838 202.87 86.2934C203.101 86.5945 204.074 86.7412 204.074 85.9923C204.005 84.981 202.044 82.9043 200.538 82.3022Z" fill="#001434"/>
<path d="M195.351 91.86C194.973 91.4122 194.069 91.088 193.923 91.9372C193.776 92.7864 195.274 94.7164 196.1 96.4534C196.555 97.3567 197.829 96.9012 197.381 95.5502C196.789 94.2755 196.111 93.0426 195.351 91.86Z" fill="#001434"/>
<path d="M189.707 63.266C189.182 62.8183 187.677 63.0421 188.58 64.3237C190.456 66.879 190.456 68.9557 191.668 68.9557C193.39 68.9866 191.437 64.5476 189.707 63.266Z" fill="#001434"/>
<path d="M181.146 87.2971C180.173 87.5441 181.818 89.9296 182.196 95.3414C182.35 97.0012 183.478 96.7001 183.478 94.8936C183.539 92.2379 182.489 86.9265 181.146 87.2971Z" fill="#001434"/>
<path d="M176.39 86.2937C178.293 91.0679 179.379 96.1284 179.602 101.263C179.671 102.243 180.575 102.243 180.729 101.193C181.177 97.8044 178.923 87.6448 177.34 85.7533C176.761 84.9813 176.174 85.7533 176.39 86.2937Z" fill="#001434"/>
<path d="M206.939 72.3755C211.679 69.1407 209.116 59.8844 204.152 57.7073C224.471 21.9634 167.659 -4.51647 152.836 33.1034C152.444 33.2718 152.067 33.4733 151.709 33.7056C150.33 32.6538 149.273 31.2357 148.661 29.6128C148.048 27.9899 147.903 26.2275 148.243 24.5264C148.776 22.2645 148.397 18.6592 146.135 17.2232C145.528 16.8351 144.847 16.5753 144.136 16.4598C143.424 16.3442 142.697 16.3755 141.997 16.5516C138.014 3.90613 114.838 14.2896 116.568 25.7308C118.297 37.3109 122.744 56.503 134.023 63.5591C132.895 66.7244 132.479 68.5309 132.749 71.0862C130.169 72.3472 127.766 73.9405 125.6 75.8256C118.266 76.474 114.969 85.5683 116.413 90.0459C114.761 93.5817 113.634 95.6893 112.653 97.7197C107.087 98.5534 104.076 100.352 102.494 103.124C100.386 106.814 101.143 111.616 105.281 114.032C106.786 114.935 109.141 114.866 110.847 115.916C112.808 117.12 113.479 118.927 115.479 119.606C118.636 120.656 119.918 118.703 122.551 119.753C124.095 120.355 125.484 122.54 127.183 123.366C129.668 124.493 130.718 123.443 132.147 124.045C133.953 124.817 134.254 126.361 137.721 126.824C142.53 127.427 144.669 122.308 146.521 115.769C147.293 119.374 147.571 120.957 147.571 120.957C147.571 120.957 146.799 121.636 146.444 121.938C137.412 130.152 142.939 141.477 149.679 140.744C151.995 140.52 152.466 139.617 153.593 139.47C155.399 139.238 156.449 140.296 158.935 139.539C161.792 138.644 162.093 137.138 164.131 136.683C166.169 136.227 168.338 137.285 171.202 136.606C174.738 135.78 174.36 133.07 179.254 133.826C192 135.756 184.929 119.807 185.122 114.712C185.199 113.886 186.851 108.466 188.133 104.629C201.071 101.24 208.351 91.4047 207.695 78.8209C207.641 76.6535 207.388 74.4957 206.939 72.3747V72.3755ZM165.026 20.3036C175.41 13.1548 190.68 16.9916 198.586 24.7426C206.784 32.7946 209.718 45.5868 202.446 57.0202C194.092 54.766 184.311 58.7572 182.659 65.9755C156.82 65.8288 142.453 35.7283 165.026 20.3036ZM152.234 35.5739C151.381 40.5784 151.981 45.7227 153.964 50.3964C145.765 50.3269 146.406 39.4879 152.234 35.5739ZM118.374 84.7808C121.161 85.1537 123.805 86.2414 126.048 87.9383C127.306 88.8725 127.854 87.4906 126.874 86.6645C124.52 84.885 121.746 83.7441 118.822 83.3526C119.255 82.3117 119.813 81.3267 120.482 80.419C122.327 80.6251 124.115 81.1864 125.747 82.0711C126.951 82.7505 127.406 81.3917 126.519 80.8668C125.02 80.0275 123.392 79.4432 121.701 79.1375C126.966 74.5054 135.922 82.2255 130.726 88.6949C126.426 95.0176 115.44 92.1612 118.374 84.7886V84.7808ZM140.268 124.153C136.161 126.469 134.702 121.065 130.34 121.521C125.855 122.007 125.6 115.854 119.532 117.159C114.267 118.286 115.247 115.615 110.808 113.469C109.149 112.643 107.867 113.168 105.991 112.04C105.055 111.421 104.316 110.547 103.862 109.52C103.408 108.494 103.257 107.359 103.428 106.25C103.961 101.742 108.168 100.151 113.14 99.5493C120.211 102.035 139.697 111.739 142.26 122.2C141.768 123.002 141.083 123.668 140.268 124.138V124.153ZM146.444 111.214C149.687 110.99 150.737 111.292 150.659 110.442C150.582 109.593 149.609 109.315 146.143 109.771C145.916 108.607 145.841 107.418 145.919 106.235C147.462 106.104 149.013 106.127 150.551 106.304C151.323 106.382 151.455 104.953 149.88 104.76C148.602 104.565 147.304 104.539 146.02 104.683C147.672 95.1721 154.782 101.665 155.122 106.999C155.423 111.137 153.091 115.43 148.127 114.449C147.795 114.21 146.969 113.306 146.406 111.23L146.444 111.214ZM183.169 131.603C180.636 132.8 178.297 130.831 175.495 131.835C173.696 132.468 172.785 134.313 170.755 134.691C167.512 135.216 163.675 133.147 161.043 136.119C158.557 138.883 156.009 137.077 153.369 137.478C151.632 137.741 150.814 138.829 148.93 138.682C146.614 138.451 145.17 136.644 144.414 135.139C142.306 131.001 144.946 125.103 148.853 122.015C155.932 120.471 179.401 119.907 185.137 124.647C185.716 128.507 185.137 130.661 183.161 131.588L183.169 131.603ZM184.674 122.277C176.769 118.363 158.565 118.664 149.308 120.17C149.154 119.043 148.853 117.761 148.629 116.479C159.167 117.159 159.769 100.005 149.988 98.1211C150.814 96.3918 151.941 93.7593 152.304 92.7788C152.667 91.7984 150.798 91.6517 149.988 93.5508C149.373 95.1333 148.669 96.6798 147.88 98.1829C142.986 100.815 143.248 109.246 145.394 113.685C144.468 115.499 143.761 117.417 143.287 119.398C138.701 108.79 120.566 100.213 114.545 97.959C115.695 95.8862 116.726 93.7494 117.633 91.5591C128.171 100.514 142.468 82.2332 127.87 76.1189C129.49 74.8273 131.23 73.6925 133.065 72.7298C135.32 80.7818 151.424 88.5328 157.97 90.6404C159.398 109.377 171.21 109.678 186.033 104.938C183.578 114.055 182.435 113.546 184.666 122.262L184.674 122.277ZM186.704 103.016C177.224 106.019 169.018 107.524 164.355 102.637C162.039 100.229 159.916 96.1679 159.993 89.9919C159.993 87.892 162.1 86.3866 164.81 85.0279C165.181 84.8416 165.499 84.5651 165.735 84.2238C165.971 83.8825 166.118 83.4874 166.161 83.0747C166.655 77.6089 172.291 77.4854 173.758 80.9671C174.661 83.0747 176.769 81.9398 178.876 81.1138C180.984 80.2878 180.158 77.3541 179.478 75.1693C178.953 73.5173 177.448 74.3433 177.672 75.5476C178.174 78.2496 178.668 79.122 177.826 79.4617C177.262 79.7621 176.651 79.9657 176.02 80.0639C175.851 80.0902 175.678 80.0598 175.529 79.9773C175.379 79.8949 175.261 79.7651 175.194 79.6084C172.623 74.4745 164.115 75.7484 163.753 83.2986C161.722 84.1246 158.711 85.8539 158.032 88.7876C153.67 87.8148 146.745 83.4993 141.403 79.9867C130.796 73.0386 133.969 65.7895 140.731 53.5763C141.635 51.9242 140.353 51.3915 139.45 52.4492C137.643 54.5567 135.011 60.424 134.555 61.6283C124.102 55.1589 119.733 35.0636 118.227 25.5833C116.722 16.1031 136.755 6.54562 140.052 17.0912C137.265 18.0717 136.277 22.6883 137.867 23.414C137.994 23.4667 138.132 23.4846 138.268 23.4659C138.404 23.4471 138.533 23.3925 138.641 23.3075C138.749 23.2225 138.832 23.1103 138.882 22.9825C138.932 22.8546 138.946 22.7158 138.925 22.5802C138.848 19.4227 142.013 17.1762 144.715 18.7202C147.726 20.4495 145.773 24.7418 146.259 27.7527C146.714 31.0646 147.919 32.6395 150.119 34.747C142.823 40.7687 145.379 53.0359 154.751 52.0554C159.939 61.4585 172.955 67.9356 182.543 67.5574C185.747 79.9095 197.026 69.1477 205.04 72.5986C205.414 74.2823 205.641 75.9946 205.719 77.717C193.845 74.8991 185.091 92.0223 192.101 100.877C190.356 101.721 188.549 102.43 186.697 103L186.704 103.016ZM202.955 92.5549C201.002 88.942 198.439 86.9888 197.991 88.1854C197.543 89.382 199.497 89.5441 202.052 94.0604C200.176 96.8396 197.613 98.6461 194 100.306C187.322 91.5436 195.544 77.2152 205.889 79.84C206.309 84.2799 205.277 88.7363 202.947 92.5395L202.955 92.5549ZM204.159 70.6531C196.262 67.9511 185.724 77.6552 184.373 66.6695C183.47 59.073 204.314 53.8774 207.093 63.8131C207.989 67.0324 208.166 71.9964 204.152 70.6377L204.159 70.6531Z" fill="#001434"/>
<path d="M200.392 60.6335C199.859 60.5717 199.566 60.9345 200.315 62.5172C201.218 64.4009 200.616 66.879 201.967 67.1029C203.851 67.404 202.716 60.9114 200.392 60.6335Z" fill="#001434"/>
<path d="M193.768 60.5556C192.564 61.0111 194.594 62.6632 195.575 65.9596C196.1 67.6889 197.76 67.5036 197.304 65.4347C197.003 63.4197 195.351 59.9534 193.768 60.5556Z" fill="#001434"/>
<path d="M164.046 65.2962C157.654 61.0116 153.238 57.0203 149.447 57.0975C146.591 57.1747 145.533 58.7573 140.646 66.8788C139.141 69.3647 137.188 73.8801 141.171 76.6594C144.547 78.9636 148.067 81.0497 151.709 82.9049C153.215 83.731 154.72 82.8277 153.361 81.855C150.875 79.9713 144.939 76.9605 141.627 74.1349C139.519 72.3284 141.773 68.3371 144.63 64.0988C149.524 56.703 149.262 57.4364 163.158 66.878C166.694 69.1941 164.285 71.5101 162.633 74.5981C161.861 75.9568 163.081 77.91 166.022 72.946C167.96 69.2095 167.504 67.5574 164.046 65.2954V65.2962Z" fill="#001434"/>
<path d="M142.754 30.1695C142.09 28.5096 140.902 33.8674 123.338 35.1335C122.96 35.1335 122.813 35.5889 123.037 35.9595C123.562 36.7856 129.213 36.1139 134.478 34.8324C138.763 33.6975 143.133 31.2889 142.754 30.1695Z" fill="#001434"/>
<path d="M132.819 42.7222C131.266 43.5138 129.626 44.1202 127.932 44.5287C126.728 44.7603 127.407 45.733 128.704 45.5092C130.345 45.284 131.922 44.7215 133.336 43.8571C134.1 43.2935 134.177 42.0506 132.819 42.7222Z" fill="#001434"/>
<path d="M135.683 37.7583C129.754 40.5916 124.875 39.7192 125.647 40.9236C126.419 42.1279 134.139 40.3214 136.331 38.8855C137.034 38.3605 137.713 36.7779 135.683 37.7583Z" fill="#001434"/>
<path d="M158.179 73.5788C154.264 71.4712 150.458 77.3385 155.168 79.7549C158.758 81.5536 162.162 75.7173 158.179 73.5788ZM157.877 77.2613C156.449 79.5233 153.245 76.6591 155.615 75.1537C155.915 74.9787 156.263 74.9047 156.608 74.9428C156.954 74.9809 157.277 75.129 157.532 75.3652C157.785 75.6023 157.956 75.9147 158.018 76.2561C158.08 76.5976 158.031 76.95 157.877 77.2613Z" fill="#001434"/>
<path d="M158.927 68.9863C157.121 67.7048 155.546 66.8787 153.523 65.5277C150.057 63.3429 148.405 61.8375 147.88 63.119C147.424 64.0223 150.659 67.1026 157.059 70.0671C158.626 70.7928 160.209 69.8895 158.927 68.9863Z" fill="#001434"/>
<path d="M143.356 73.3475C143.804 73.7257 147.27 76.1884 148.243 76.2116C149.826 76.2502 149.679 75.5322 147.116 73.5791C142.476 69.9043 142.137 72.5369 143.356 73.3475Z" fill="#001434"/>
<path d="M151.037 71.8582C152.388 71.7115 153.145 70.8855 147.046 67.2262C145.919 66.5468 145.618 68.1294 146.143 68.7702C147.795 70.7928 150.427 71.92 151.037 71.8582Z" fill="#001434"/>
<path fill-rule="evenodd" clip-rule="evenodd" d="M60.1652 181.651C73.6412 181.05 80.8146 185.395 87.3885 190.021C79.0546 199.487 78.1562 212.299 81.5788 221.92C89.1393 243.172 116.983 251.032 134.567 234.227C139.561 229.454 142.27 223.312 143.436 219.111C146.211 226.958 146.395 235.518 143.914 243.517C142.746 247.409 141.079 250.619 139.418 253.815C137.635 257.247 135.861 260.663 134.724 264.889C133.352 269.99 134.422 274.495 135.548 279.229C137.14 285.924 138.841 293.077 133.895 303.026C129.622 311.623 119.04 315.554 109.506 315.809C100.449 316.05 91.3263 311.264 84.3767 307.617C81.9559 306.347 79.7996 305.216 78.0005 304.483C69.6547 301.083 64.1307 305.62 58.2071 310.484L58.2066 310.485H58.2062L58.2049 310.487H58.2042L58.2039 310.487H58.2032L58.2029 310.488C57.3433 311.194 56.4751 311.907 55.5889 312.603C50.7045 316.441 23.9112 331.203 6.56805 302.886C2.54749 296.329 -4.30776 279.127 3.73181 262.182C7.56633 254.101 12.2316 250.124 16.3808 246.586C21.2272 242.455 25.3695 238.923 26.6616 230.154C27.1565 226.794 27.0215 223.391 26.8841 219.926C26.6113 213.049 26.3291 205.932 30.9443 198.438C34.0621 193.456 38.3589 189.318 43.4553 186.39C48.5516 183.462 54.2905 181.835 60.1652 181.651ZM45.8885 233.967C47.155 233.357 49.1504 232.396 49.6896 232.173C49.7493 232.154 49.8136 232.156 49.8725 232.177C49.9314 232.198 49.9819 232.238 50.0163 232.29C50.0507 232.342 50.0672 232.404 50.0633 232.467C50.0594 232.529 50.0353 232.589 49.9946 232.636C49.6658 232.966 46.1473 234.929 45.6107 235.226C45.7407 235.391 46.1494 235.675 46.6123 235.996C47.0036 236.268 47.4338 236.567 47.7671 236.843C48.6441 237.569 48.6537 237.682 48.6723 237.901C48.674 237.92 48.6756 237.939 48.6777 237.959C48.6812 237.986 48.6786 238.015 48.67 238.041C48.6615 238.068 48.6472 238.093 48.6283 238.113C48.6093 238.134 48.5861 238.15 48.5602 238.161C48.5343 238.172 48.5064 238.177 48.4784 238.176C48.3837 238.171 48.2903 238.152 48.2017 238.118C47.5262 237.722 46.8965 237.28 46.3654 236.907C45.6882 236.432 45.1713 236.069 44.9247 236.058C44.7638 237.307 44.6679 238.564 44.6372 239.823C44.6073 240.307 44.5797 240.609 44.3958 240.743C44.3165 240.809 44.2183 240.849 44.1152 240.856C43.7695 240.856 43.748 240.373 43.7396 240.029C43.7105 238.834 43.8753 236.682 43.9205 236.12C43.8048 236.17 43.6185 236.263 43.3119 236.426C42.1782 237.026 41.5447 237.395 41.1697 237.614L41.1693 237.614C40.6401 237.922 40.6259 237.931 40.4465 237.864C40.387 237.844 40.3347 237.808 40.296 237.758C40.2573 237.709 40.2339 237.649 40.2288 237.587C40.1791 236.988 41.8573 236.094 43.0183 235.476C43.219 235.369 43.4044 235.27 43.5625 235.183L43.0022 234.79C40.3766 232.951 40.0221 232.703 40.0357 232.477C40.0378 232.442 40.049 232.407 40.0618 232.367L40.0632 232.362C40.3187 231.56 41.7367 232.622 42.8948 233.489C43.3733 233.847 43.8074 234.172 44.0968 234.319C44.0922 234.053 44.1267 233.296 44.3329 231.007C44.4388 229.83 44.4257 228.926 44.4161 228.259C44.4007 227.198 44.394 226.733 44.8887 226.714C44.9991 226.723 45.1042 226.766 45.1896 226.836C45.2751 226.907 45.3367 227.002 45.3662 227.109C45.3924 229.532 45.2901 231.954 45.0596 234.366C45.2502 234.275 45.5368 234.137 45.877 233.973L45.8824 233.97L45.8871 233.968L45.8885 233.967ZM127.653 258.386C127.697 258.339 127.723 258.278 127.728 258.214C127.734 258.15 127.717 258.086 127.682 258.032C127.648 257.977 127.596 257.936 127.534 257.915C127.474 257.894 127.408 257.894 127.346 257.913C126.736 258.166 124.279 259.352 123.104 259.92L123.102 259.92L122.716 260.107C122.947 257.694 123.049 255.272 123.023 252.849C122.993 252.742 122.931 252.647 122.846 252.577C122.761 252.506 122.656 252.464 122.546 252.455C122.051 252.474 122.058 252.939 122.074 253.998C122.083 254.666 122.097 255.569 121.991 256.748C121.784 259.035 121.751 259.793 121.755 260.059C121.465 259.913 121.03 259.587 120.55 259.227C119.393 258.36 117.977 257.299 117.721 258.103L117.719 258.109C117.706 258.149 117.695 258.183 117.693 258.219C117.679 258.445 118.035 258.694 120.698 260.557L121.22 260.923C121.076 261.003 120.906 261.092 120.72 261.191C119.574 261.8 117.836 262.723 117.886 263.328C117.899 263.394 117.929 263.456 117.973 263.506C118.017 263.557 118.074 263.594 118.138 263.616C118.201 263.637 118.27 263.641 118.336 263.627C118.402 263.613 118.462 263.581 118.512 263.536C118.704 263.383 121.272 261.992 121.655 261.809C121.652 261.846 121.648 261.89 121.643 261.94L121.643 261.946C121.554 262.932 121.259 266.221 121.978 266.221C122.183 266.221 122.192 266.097 122.257 265.195V265.194V265.193H122.258C122.294 264.692 122.348 263.952 122.462 262.862C122.496 262.534 122.529 261.763 122.529 261.763C122.667 261.831 122.808 261.926 123.021 262.066C123.301 262.251 123.703 262.518 124.378 262.913C124.513 262.963 124.707 263.013 124.805 262.908C124.865 262.843 124.859 262.788 124.852 262.726C124.851 262.714 124.849 262.703 124.848 262.691C124.829 262.432 124.747 262.303 123.943 261.637C123.681 261.42 123.493 261.276 123.335 261.155C123.275 261.109 123.218 261.066 123.163 261.023C123.511 260.848 127.316 258.724 127.653 258.386ZM62.6793 195.606C62.6931 195.633 62.7013 195.663 62.7033 195.694C62.7148 196.169 58.7939 200.115 57.1197 201.578C57.3286 201.832 58.6193 203.002 59.7452 204.022L59.7511 204.028C59.9412 204.2 60.1264 204.368 60.3009 204.526C61.4316 205.552 61.4093 205.645 61.3787 205.773C61.3686 205.809 61.3498 205.842 61.3239 205.869C61.2982 205.895 61.2661 205.915 61.2307 205.927C60.8038 206.047 57.4217 203.351 56.4015 202.324C56.2304 203.075 55.9652 205.899 55.7868 207.8C55.6918 208.812 55.6214 209.562 55.6027 209.599C55.5896 209.626 55.5706 209.649 55.547 209.667C55.5235 209.685 55.4961 209.697 55.467 209.702C55.4379 209.708 55.408 209.707 55.3795 209.699C55.3511 209.69 55.3249 209.676 55.303 209.656C54.7105 209.119 55.01 206.383 55.2238 204.43L55.224 204.428C55.2834 203.886 55.3361 203.404 55.3613 203.047C55.2037 203.165 54.9752 203.353 54.5601 203.694C54.355 203.863 54.1044 204.069 53.7944 204.322C53.1682 204.837 53.1329 204.912 53.0449 205.1C53.026 205.14 53.0045 205.186 52.9742 205.242C52.6385 205.885 51.8405 205.239 52.2077 204.482C52.4321 204.02 52.5516 203.922 54.2383 202.541C54.5273 202.305 54.8622 202.031 55.2516 201.711C55.3475 201.632 55.4394 201.556 55.4939 201.505C55.4134 201.436 51.3767 197.622 51.3507 197.513C51.2594 197.173 51.3775 197.033 51.4894 196.976C52.1617 196.633 55.211 199.731 55.7177 200.287C55.7246 200.211 55.7307 200.117 55.7361 200.03C55.7548 199.725 55.8204 199.126 55.91 198.309L55.9102 198.307C56.0003 197.484 56.1146 196.441 56.2298 195.253L56.23 195.251C56.3976 193.532 56.4078 193.428 56.7717 193.371C57.3807 193.27 57.127 195.628 56.8244 198.44C56.7475 199.154 56.6675 199.898 56.5977 200.638C59.2944 198.391 60.6748 197.021 61.4427 196.259C62.2207 195.487 62.3701 195.339 62.6228 195.534C62.6462 195.554 62.6655 195.578 62.6793 195.606ZM93.0671 264.776C92.2262 265.231 92.1817 265.25 92.0299 265.314C91.9234 265.359 91.7632 265.427 91.2343 265.686C90.9146 265.842 90.4984 266.056 90.1274 266.245C89.7119 266.458 89.3539 266.641 89.255 266.682C89.2796 266.273 89.4137 263.71 89.3486 263.483C89.3907 263.31 89.4152 263.133 89.4198 262.954C89.4221 262.83 89.3769 262.709 89.2934 262.617C89.2098 262.525 89.0941 262.468 88.9699 262.458C88.4149 262.422 88.3934 263.072 88.3957 263.625C88.3988 264.298 88.3712 264.685 88.3459 265.051C88.3206 265.409 88.2968 265.745 88.3045 266.308C88.2654 266.287 88.221 266.263 88.1719 266.237L88.0929 266.195L88.0914 266.194C87.3103 265.774 85.6124 264.863 85.0589 265.213C85.0014 265.255 84.9562 265.314 84.9294 265.38C84.9018 265.447 84.8941 265.52 84.9056 265.591C84.9171 265.663 84.9478 265.729 84.9945 265.784C85.0405 265.839 85.1019 265.879 85.1701 265.902C86.9952 266.747 87.4981 266.99 87.7518 267.113C87.899 267.184 87.9619 267.215 88.152 267.299C88.05 267.367 87.9343 267.438 87.794 267.524C87.4843 267.715 87.0527 267.981 86.3812 268.449C85.5564 269.028 86.0746 270.029 86.5184 269.619C87.0535 269.163 87.6392 268.769 88.2647 268.447C88.29 271.245 88.5674 271.494 88.674 271.59C88.7016 271.617 88.7338 271.639 88.7698 271.652C88.8058 271.666 88.8442 271.672 88.8825 271.67C88.9216 271.668 88.9591 271.658 88.9936 271.642C89.0281 271.625 89.0588 271.6 89.0833 271.571C89.1791 271.45 89.1607 271.3 89.1048 270.85C89.0979 270.795 89.091 270.737 89.0833 270.674C89.1117 270.566 89.1332 269.962 89.1546 269.343C89.1791 268.647 89.2044 267.932 89.2412 267.879C89.2834 267.882 89.324 267.895 89.36 267.918C90.0691 268.267 90.6057 268.537 91.015 268.743C92.0522 269.265 92.2645 269.371 92.3596 269.306C92.3841 269.29 92.4002 269.261 92.4217 269.225L92.4339 269.205C92.7505 268.651 91.3661 267.919 90.5206 267.472C90.4056 267.411 90.3006 267.355 90.2109 267.306C91.2435 266.749 92.243 266.135 93.2066 265.466C93.7715 264.985 93.3162 264.64 93.0671 264.776ZM113.473 286.799C113.487 286.827 113.496 286.858 113.497 286.888C113.513 287.363 109.596 291.304 107.915 292.774C108.115 293.014 109.364 294.146 110.573 295.241L110.574 295.242L110.576 295.244C110.751 295.403 110.925 295.561 111.095 295.715C112.225 296.741 112.202 296.834 112.172 296.962C112.162 296.998 112.143 297.031 112.117 297.057C112.091 297.084 112.059 297.104 112.024 297.116C111.601 297.228 108.216 294.541 107.195 293.513C107.021 294.27 106.748 297.169 106.57 299.072V299.073C106.479 300.045 106.412 300.755 106.395 300.789C106.382 300.815 106.363 300.838 106.339 300.856C106.315 300.873 106.289 300.885 106.259 300.891C105.419 301.022 105.828 297.288 106.049 295.264L106.05 295.263V295.258C106.098 294.816 106.138 294.456 106.154 294.236C105.98 294.367 105.681 294.612 105.266 294.954L105.264 294.955L104.985 295.185C104.86 295.287 104.728 295.396 104.587 295.511C103.96 296.024 103.926 296.096 103.836 296.288C103.818 296.328 103.796 296.372 103.767 296.427C103.431 297.07 102.632 296.425 103.001 295.667C103.232 295.193 103.26 295.169 105.345 293.468L105.665 293.207L106.067 292.878L106.089 292.86C106.136 292.821 106.182 292.784 106.22 292.751C106.246 292.729 106.269 292.709 106.289 292.691C106.212 292.63 102.171 288.808 102.145 288.697C102.053 288.358 102.171 288.217 102.283 288.161C102.958 287.818 105.99 290.907 106.512 291.472C106.614 290.295 106.683 289.673 106.766 288.904C106.833 288.293 106.91 287.588 107.023 286.436C107.192 284.716 107.202 284.613 107.566 284.555C108.175 284.46 107.921 286.818 107.619 289.628C107.542 290.342 107.461 291.084 107.392 291.823C107.438 291.777 107.583 291.655 107.809 291.465C108.6 290.802 110.381 289.309 112.407 287.289L112.408 287.288C112.987 286.71 113.163 286.534 113.416 286.728C113.44 286.748 113.46 286.772 113.473 286.799ZM31.0095 268.414C31.1853 268.403 31.3666 268.312 31.6102 268.191C32.3787 267.809 33.768 267.118 37.5673 267.602C37.906 267.615 38.1453 267.659 38.3333 267.695C38.7099 267.765 38.8802 267.797 39.23 267.459C39.7175 266.999 43.0804 262.553 43.1279 262.484C43.4107 262.093 43.8585 261.597 44.3117 261.095C45.3244 259.972 46.3641 258.82 45.6514 258.75C44.2723 258.515 42.8635 258.515 41.4844 258.75C40.361 258.941 39.2635 259.263 38.2135 259.706C35.7357 260.974 33.6142 262.842 32.042 265.14C31.5055 265.994 31.0409 266.888 30.5933 267.792C30.5582 267.86 30.542 267.936 30.5463 268.013C30.5506 268.089 30.5752 268.162 30.6178 268.226C30.6603 268.289 30.7191 268.341 30.7879 268.374C30.8568 268.407 30.9333 268.421 31.0095 268.414ZM44.9731 280.443C45.0427 280.481 45.0992 280.539 45.1355 280.609C45.3521 281.088 44.4569 282.189 40.2483 287.37C37.3977 290.878 33.0267 296.259 26.4516 304.583C26.0197 305.129 25.6776 305.57 25.4034 305.922L25.403 305.923C24.4117 307.2 24.3089 307.333 24.0646 307.182C23.9864 307.131 23.9066 307.029 23.9756 306.799C24.6709 304.52 44.0286 280.396 44.7453 280.396C44.8242 280.389 44.9035 280.405 44.9731 280.443ZM30.7029 304.456C29.9616 305.363 30.7305 306.172 31.2609 305.396C31.6066 304.775 34.0481 303.424 36.7901 303.522C37.1212 303.534 37.2063 303.651 37.0729 303.998C36.7271 304.891 34.8452 306.055 34.0803 306.528C33.9109 306.633 33.7962 306.704 33.7652 306.73C33.6272 306.825 33.515 306.954 33.4388 307.102C33.3627 307.252 33.3249 307.417 33.3292 307.585C33.3333 307.752 33.3793 307.916 33.4628 308.062C33.5463 308.207 33.6648 308.329 33.8074 308.417C33.9835 308.546 34.1627 308.671 34.3347 308.792C34.949 309.222 35.4725 309.588 35.4402 309.833C35.3773 310.307 33.6411 311.028 30.4576 312.195C29.931 312.388 30.0099 313.038 31.2586 313.038C32.6269 312.943 33.9511 312.514 35.1159 311.79C38.4485 309.938 36.2322 308.569 35.0619 307.846C34.8196 307.696 34.622 307.574 34.528 307.481C34.5507 307.465 34.618 307.429 34.7196 307.374C35.4225 306.996 37.767 305.736 38.3262 304.179C39.4561 301.03 32.5779 302.166 30.7029 304.456ZM18.668 296.306C19.5726 292.776 22.3168 290.256 23.8806 293.435C24.9706 295.65 24.1236 298.4 23.1731 298.32C23.1081 298.318 23.0444 298.301 22.9873 298.27C22.9302 298.239 22.8812 298.195 22.8442 298.141C22.7959 298.016 22.7751 297.882 22.7833 297.748C22.7915 297.615 22.8285 297.484 22.8917 297.365C23.5832 295.324 22.5797 292.686 21.6499 293.511C20.4173 294.606 19.4453 297.171 19.8807 298.162C20.0662 298.586 20.0586 299.214 19.6147 299.352C19.0245 299.539 18.826 299.076 18.6527 298.67C18.1422 297.487 17.1564 297.342 16.583 297.827C15.9056 298.528 15.5003 299.447 15.4401 300.42C15.4401 300.774 15.695 300.991 15.9122 301.175C16.1246 301.356 16.3009 301.506 16.1683 301.723C16.1236 301.792 16.0569 301.843 15.9794 301.868C15.9018 301.894 15.8179 301.892 15.7414 301.864C15.314 301.77 14.9346 301.526 14.6728 301.175C14.4109 300.825 14.2841 300.392 14.3156 299.956C14.2999 299.448 14.405 298.944 14.6222 298.485C15.1151 297.166 15.7636 296.502 16.7908 296.262C17.3862 296.134 18.0082 296.246 18.5209 296.575L18.5914 296.607C18.6117 296.505 18.6373 296.405 18.668 296.306ZM50.7796 285.815C50.3831 284.854 49.7385 285.494 48.8001 286.426C48.4216 286.802 47.9952 287.226 47.5179 287.611C45.9473 288.875 41.2414 293.432 39.7942 294.837C34.8476 299.637 34.9465 299.764 35.0967 299.957C35.1153 299.983 35.1398 300.004 35.1683 300.019C35.1966 300.033 35.2281 300.041 35.26 300.04C36.1255 300.04 50.2645 286.763 50.7635 285.992C50.7804 285.966 50.7906 285.936 50.7934 285.906C50.7962 285.875 50.7915 285.843 50.7796 285.815ZM38.1796 280.025L38.179 280.025C35.0635 284.472 30.2976 291.274 29.5822 292.578C29.3875 292.939 28.8908 292.841 29.0172 292.313C29.4166 290.668 38.7379 276.82 40.1567 275.691C40.2221 275.616 40.3114 275.566 40.4095 275.548C40.5077 275.531 40.6089 275.548 40.6961 275.596C40.7833 275.645 40.8513 275.721 40.8888 275.813C40.9262 275.906 40.9308 276.009 40.9018 276.104C40.8819 276.167 39.737 277.802 38.1796 280.025ZM78.3409 254.551C76.8699 253.952 75.4679 253.196 74.1594 252.297C71.891 250.649 69.9194 248.627 68.329 246.318C68.0783 245.907 67.883 245.574 67.727 245.309C67.3266 244.628 67.1849 244.387 67.0309 244.379C66.9466 244.374 66.8585 244.44 66.7222 244.541L66.6955 244.561C59.0415 249.131 52.2059 254.95 46.4716 261.775C45.3363 263.155 45.3455 263.19 45.5747 263.583C48.8908 269.291 56.9496 275.586 62.6542 278.816C63.0705 279.055 63.1992 279.053 67.3401 274.021C72.0876 268.253 75.9876 261.837 78.9212 254.968C78.9204 254.613 78.7855 254.607 78.61 254.6C78.5264 254.597 78.4336 254.593 78.3409 254.551ZM65.1777 264.76C62.7301 264.429 61.3181 263.821 59.9276 261.763C56.5149 256.704 62.0831 249.917 68.0001 252.628C73.6979 255.239 72.6086 264.397 65.1777 264.76ZM60.4779 279.936C61.3211 280.407 61.4899 280.501 61.2369 280.781L61.1691 280.855C60.4982 281.584 57.8358 284.478 56.8307 284.761C52.7496 284.09 44.953 277.352 42.2977 273.601C41.4586 272.565 40.8032 271.392 40.3599 270.135L40.3222 270.048L40.2892 269.971C40.0954 269.523 40.0559 269.432 40.1682 269.28C41.2077 267.882 43.4245 265.167 43.4422 265.15C43.8438 264.684 44.0802 265.034 44.7819 266.071C45.8739 267.684 48.0924 270.962 53.8121 275.422C57.3743 278.202 59.4385 279.355 60.4779 279.936ZM82.885 239.729C82.8766 239.569 82.8344 239.413 82.7601 239.271C82.6857 239.129 82.5822 239.005 82.4557 238.907C82.3293 238.809 82.1828 238.739 82.0265 238.703C81.8709 238.666 81.7091 238.664 81.552 238.696C77.5713 239.156 74.6622 240.005 69.0572 242.891C68.7506 243.05 68.7667 243.166 69.301 243.965C71.5815 247.368 73.8129 250.238 78.5226 252.286C78.7433 252.382 78.9357 252.467 79.1036 252.541C80.1798 253.014 80.258 253.048 80.3623 252.861C82.3867 249.133 83.1548 242.067 82.885 239.729ZM61.9838 262.53C61.3091 261.992 60.7764 261.298 60.432 260.507C60.0176 259.539 59.9018 258.468 60.0995 257.432C60.2972 256.396 60.7994 255.444 61.5417 254.695C62.284 253.947 63.2328 253.437 64.2666 253.231C65.3003 253.024 66.3721 253.132 67.3447 253.538C68.1382 253.876 68.8367 254.403 69.3795 255.073C69.9223 255.743 70.2927 256.536 70.4585 257.382C70.6243 258.229 70.5803 259.103 70.3304 259.928C70.0806 260.754 69.6324 261.506 69.0251 262.118C68.4177 262.73 67.6698 263.184 66.8465 263.441C66.0231 263.698 65.1495 263.748 64.3018 263.59C63.4542 263.431 62.6584 263.067 61.9838 262.53ZM69.0834 259.585C69.344 258.879 69.4034 258.114 69.255 257.376C69.1279 256.755 68.8575 256.172 68.4654 255.674C68.0733 255.175 67.5703 254.776 66.9964 254.506C66.4226 254.236 65.7937 254.104 65.1599 254.121C64.5261 254.137 63.9048 254.301 63.3456 254.6C62.6831 254.958 62.1327 255.491 61.7558 256.142C61.3789 256.794 61.1902 257.537 61.2109 258.289C61.2315 259.041 61.4607 259.773 61.8728 260.402C62.2849 261.032 62.8637 261.535 63.5448 261.855C64.2259 262.175 64.9825 262.299 65.7302 262.215C66.4778 262.129 67.1872 261.838 67.7793 261.374C68.3714 260.91 68.8229 260.29 69.0834 259.585ZM67.2865 277.68C66.9238 277.609 66.4322 278.229 65.6945 279.158C65.2362 279.736 64.6829 280.432 64.0064 281.158C63.9834 281.183 63.9896 281.176 63.9973 281.168C64.0315 281.129 64.0946 281.059 61.7167 283.611C61.4458 283.901 61.2336 284.107 61.0316 284.303C60.6936 284.632 60.3841 284.932 59.877 285.548C59.5065 285.99 59.6819 286.462 59.9067 287.068C60.0111 287.349 60.1261 287.659 60.202 288.007C60.3098 288.5 60.386 288.84 60.44 289.081C60.5388 289.521 60.5632 289.629 60.57 289.738C60.5723 289.774 60.5726 289.81 60.5731 289.858C60.5747 290.023 60.5779 290.332 60.6666 291.274C60.6833 292.427 60.4359 293.028 60.2793 293.409C60.135 293.759 60.0678 293.922 60.3561 294.156C60.7222 294.455 60.7562 294.428 62.8057 292.828L62.8765 292.772C69.1362 287.871 68.6164 277.937 67.2865 277.68ZM64.6449 256.82C65.3728 256.447 66.1403 256.159 66.9331 255.959C67.0734 255.932 67.1678 255.888 67.2427 255.853C67.3957 255.781 67.4666 255.748 67.6782 255.982C68.1121 256.48 68.7583 257.479 68.1312 257.677C65.8853 258.386 65.8858 258.387 66.0799 258.688C66.1345 258.773 66.2044 258.882 66.244 259.036C66.2759 259.154 66.2729 259.277 66.2355 259.393C66.1981 259.508 66.1278 259.61 66.0332 259.686C65.3747 260.114 64.6676 260.464 63.9267 260.725C63.3364 260.875 62.7086 260.704 62.2303 259.385C62.1329 259.118 62.2664 259.087 62.6594 258.997C62.9805 258.923 63.4747 258.81 64.1574 258.495C64.98 258.117 64.7977 257.834 64.6124 257.546C64.4683 257.322 64.3225 257.096 64.6449 256.82Z" fill="black"/>
<path d="M139.111 191.496C128.671 176.98 109.526 174.388 94.7351 182.689C72.6776 195.066 72.6301 231.02 99.3689 241.884C109.341 245.936 123.074 245.134 132.219 237.87C137.197 233.916 140.569 228.535 142.542 224.655C147.383 213.299 144.966 199.634 139.111 191.496ZM144.139 215.23C144.063 218.212 141.547 227.557 134.567 234.227C116.983 251.032 89.1393 243.172 81.5788 221.92C77.1811 209.558 79.9169 191.93 96.3916 182.897C114.573 172.927 139.195 182.049 143.471 204.036C144.28 207.709 144.506 211.487 144.139 215.23Z" fill="black"/>
<path d="M115.105 221.183C112.836 220.366 110.67 221.994 109.483 223.854C107.006 227.737 107.858 233.283 112.502 233.002C113.851 233.002 116.471 230.801 117.305 227.655C118.119 224.58 116.892 221.826 115.105 221.183ZM116.999 226.043C116.728 229.34 114.316 231.957 112.81 232.252C111.835 232.443 114.267 230.528 114.662 226.519C115.138 221.646 112.107 222.355 112.728 221.791C113.102 221.575 113.538 221.494 113.964 221.561C115.259 221.28 117.234 223.188 116.999 226.043Z" fill="black"/>
<path d="M96.0069 212.41C94.0138 210.21 90.211 210.504 88.2931 215.409C86.5369 219.899 90.654 226.217 95.6251 220.763C97.3376 218.885 97.8267 214.421 96.0069 212.41ZM94.6723 212.216C94.0606 212.429 93.5179 212.804 93.1016 213.299C92.2975 214.184 91.7379 215.263 91.4773 216.429C91.4375 216.717 91.2474 216.966 91.2274 217.263C91.1707 217.962 90.9461 219.777 91.4421 220.712C91.672 221.145 91.82 221.642 92.2929 221.906C92.4646 222.001 92.4225 222.203 92.2929 222.199C91.718 222.27 91.1347 222.181 90.6065 221.942C88.1252 220.472 88.2248 216.213 89.7541 214.089C92.0101 210.417 95.1767 211.902 94.6723 212.216Z" fill="black"/>
<path d="M110.173 194.039C108.63 193.061 105.114 193.434 103.208 194.099C98.6599 195.683 96.279 199.172 98.9987 201.137C101.314 202.811 106.844 201.271 109.231 199.642C112.002 197.751 112.039 195.221 110.173 194.039ZM99.382 199.523C99.0754 200.001 99.1881 200.273 98.8945 199.944C98.3387 199.319 98.6047 198.369 99.4564 197.371C102.375 193.952 108.263 193.519 109.924 194.661C110.354 194.966 110.65 195.426 110.751 195.944C110.85 196.462 110.746 196.999 110.46 197.443C110.339 197.624 109.785 197.16 109.5 196.928C107.487 195.286 100.986 197.021 99.382 199.523Z" fill="black"/>
<path d="M123.859 210.248C125.764 209.761 125.9 207.885 126.042 205.93C125.842 203.913 125.675 201.997 123.997 200.825C120.705 198.527 119.153 209.398 123.859 210.248ZM122.816 201.246C123.561 200.936 124.457 201.818 124.715 202.503C126.363 206.873 124.856 209.786 123.741 209.62C123.534 209.589 123.479 209.512 123.578 209.327C124.314 207.947 124.539 204.781 123.317 202.36C123.038 201.81 122.594 201.753 122.62 201.386C122.618 201.248 122.735 201.28 122.816 201.246Z" fill="black"/>
<path d="M92.1012 193.412C92.2384 191.956 91.2311 191.302 90.1296 191.595C87.7533 192.226 85.4008 196.097 85.6407 198.264C86.0546 202 91.0242 199.16 92.1012 193.412ZM87.3248 198.001C87.1999 198.395 87.1539 198.809 87.1899 199.219C87.1431 199.492 86.5675 199.296 86.3781 198.825C85.3655 196.322 89.9134 190.862 91.2319 192.33C92.1633 193.367 90.1158 191.975 87.6629 196.977C87.5486 197.21 87.4183 197.763 87.3248 198.001Z" fill="black"/>
<path d="M130.988 220.008C129.904 221.581 129.481 223.909 130.952 224.819C132.723 225.915 135.699 223.61 135.923 220.527C136.128 217.725 132.901 217.236 130.988 220.008ZM134.399 222.967C133.148 224.453 132.028 224.606 131.857 224.546C131.516 224.426 131.573 224.209 131.78 224.112C132.449 223.675 132.993 223.072 133.359 222.362C134.994 219.663 133.521 218.82 134.289 218.792C135.319 218.754 135.832 221.272 134.399 222.967Z" fill="black"/>
<path d="M139.052 203.472C137.531 203.778 135.796 207.021 136.736 209.771C137.988 213.434 141.629 210.683 141.418 206.675C141.281 204.024 139.989 203.281 139.052 203.472ZM138.264 210.847C137.466 210.564 138.428 210.123 138.684 209.16C138.715 209.045 139.738 206.361 138.699 204.867C138.378 204.408 138.356 204.434 138.699 204.218C138.879 204.135 139.075 204.092 139.274 204.094C139.472 204.096 139.667 204.143 139.846 204.23C140.024 204.317 140.18 204.443 140.303 204.599C140.426 204.754 140.513 204.935 140.557 205.129C141.534 208.921 139.435 211.256 138.264 210.847Z" fill="black"/>
<path d="M122.69 186.101C120.633 187.404 126.518 192.343 128.754 190.719C129.8 189.96 128.463 188.273 127.229 187.301C126.154 186.453 123.938 185.31 122.69 186.101ZM128.18 190.339C127.874 190.515 127.733 190.559 127.192 189.809C126.158 188.662 124.862 187.783 123.414 187.248C123.146 187.183 122.786 187.281 122.877 186.922C122.997 186.446 123.235 186.496 123.734 186.484C125.954 186.43 129.431 189.628 128.18 190.339Z" fill="black"/>
<path d="M121.223 234.62C121.095 234.82 121.022 235.05 121.008 235.288C120.995 235.525 121.042 235.762 121.146 235.976C121.747 236.859 123.514 236.922 124.866 236.715C125.827 236.567 126.016 236.34 126.222 235.828C127.258 233.31 122.584 233.031 121.223 234.62ZM125.704 234.972C125.576 236.543 125.04 234.474 122.371 235.316C122.209 235.368 121.934 235.558 121.758 235.595C121.184 235.712 121.758 233.678 124.831 234.297C125.083 234.348 125.75 234.717 125.704 234.972Z" fill="black"/>
<path d="M95.7485 231.304C94.9903 232.417 97.602 235.972 99.4839 235.679C102.402 235.223 97.428 228.837 95.7485 231.304ZM98.7924 234.791C98.6729 234.551 98.5379 234.319 98.3877 234.097C98.0305 233.496 97.5767 232.958 97.0447 232.505C96.643 232.118 96.269 232.233 96.2927 231.773C96.305 231.526 96.3494 231.473 96.6093 231.466C98.0489 231.419 99.1504 233.05 99.7667 234.509C100.004 235.07 99.017 235.428 98.7924 234.791Z" fill="black"/>
<path d="M110.496 184.395C115.729 184.771 113.453 179.265 108.944 182.01C107.641 182.803 107.715 184.196 110.496 184.395ZM112.752 182.326C113.035 182.574 112.881 182.854 112.642 183.092C112.201 183.531 112.359 183.072 111.515 182.995C109.532 182.812 109.899 183.79 109.391 183.608C107.112 182.791 111.405 181.137 112.752 182.323V182.326Z" fill="black"/>
<path d="M111.313 208.956C109.785 209.662 109.747 210.207 109.507 211.02C109.374 211.471 109.668 211.833 109.972 212.157C110.179 212.377 110.5 212.382 110.924 212.456C111.374 212.467 111.821 212.378 112.232 212.195C112.644 212.013 113.01 211.741 113.304 211.4C113.86 210.96 114.216 209.858 113.792 209.355C113.483 209.021 113.07 208.801 112.621 208.728C112.172 208.656 111.712 208.736 111.313 208.956ZM113.269 209.982C113.269 210.942 112.481 209.965 111.313 210.805C110.666 211.272 110.577 211.725 110.374 211.617C109.991 211.419 109.991 210.284 111.313 209.596C112.501 208.977 113.398 209.442 113.269 209.982Z" fill="black"/>
</svg>
